<svg width="60" height="60" viewBox="0 0 60 60" fill="none" xmlns="http://www.w3.org/2000/svg">
<path d="M56 13.6665H45.0667L41.2667 6.79981C40.9091 6.18066 40.2483 5.79941 39.5333 5.7998H20.5333C19.8184 5.79941 19.1576 6.18066 18.8 6.79981L14.9333 13.6665H4C1.79089 13.6665 0 15.4574 0 17.6665V50.1998C0 52.4089 1.79089 54.1998 4 54.1998H56C58.2091 54.1998 60 52.4089 60 50.1998V17.6665C60 15.4574 58.2091 13.6665 56 13.6665ZM30 46.5331C21.8262 46.5331 15.2 39.907 15.2 31.7331C15.2 23.5593 21.8262 16.9331 30 16.9331C38.1738 16.9331 44.8 23.5593 44.8 31.7331C44.7635 39.8917 38.1586 46.4967 30 46.5331Z" fill="#C4C4C4"/>
<path d="M30.0008 39.1335C34.0877 39.1335 37.4008 35.8204 37.4008 31.7335C37.4008 27.6466 34.0877 24.3335 30.0008 24.3335C25.9139 24.3335 22.6008 27.6466 22.6008 31.7335C22.6008 35.8204 25.9139 39.1335 30.0008 39.1335Z" fill="#C4C4C4"/>
</svg>
