<svg width="40" height="40" viewBox="0 0 40 40" fill="none" xmlns="http://www.w3.org/2000/svg">
<g clip-path="url(#clip0_304_509)">
<path d="M39.7245 17.5758C39.7243 16.7535 39.5405 15.9416 39.1863 15.1994C38.8322 14.4572 38.3167 13.8035 37.6776 13.286C37.7335 13.0299 37.7626 12.7686 37.7642 12.5065C37.7589 11.5114 37.3981 10.551 36.7469 9.79866C36.0957 9.04629 35.197 8.5515 34.2129 8.40361C34.333 7.79642 34.2953 7.16859 34.1035 6.58011C33.9145 6.02549 33.6029 5.52063 33.1918 5.10307C32.5462 4.34424 31.6735 3.81353 30.7027 3.58957C30.6177 3.55322 30.5262 3.5346 30.4337 3.53486H30.297C30.0224 3.52016 29.7471 3.53699 29.4764 3.58501C29.2838 2.57441 28.7435 1.66314 27.9492 1.00931C27.4718 0.615215 26.9158 0.327576 26.3183 0.165625C25.7208 0.00367421 25.0956 -0.0288563 24.4846 0.0702088C23.4434 0.252273 22.5004 0.797201 21.8228 1.60834C21.1452 2.41948 20.7767 3.4444 20.7828 4.50132V34.2973C20.7602 35.0393 20.8871 35.7783 21.1559 36.4703C21.4248 37.1622 21.8301 37.793 22.3477 38.3251C22.8653 38.8572 23.4847 39.2797 24.169 39.5675C24.8533 39.8553 25.5885 40.0025 26.3309 40.0003C27.3217 40.0033 28.2953 39.7411 29.1506 39.2409C30.0059 38.7407 30.7118 38.0207 31.195 37.1557C31.4052 37.2018 31.6186 37.2322 31.8333 37.2468C33.1529 37.3331 34.4528 36.8917 35.447 36.0197C36.4413 35.1477 37.0485 33.9165 37.1351 32.5969C37.1711 32.0374 37.1094 31.4759 36.9528 30.9375C37.6898 30.4174 38.3097 29.7484 38.7724 28.974C39.2351 28.1995 39.5303 27.3366 39.6389 26.441C39.7476 25.5454 39.6674 24.637 39.4033 23.7743C39.1393 22.9116 38.6974 22.1139 38.1061 21.4325C39.1326 20.4104 39.7142 19.0244 39.7245 17.5758ZM38.3295 25.6357C38.3309 26.4083 38.1564 27.1711 37.8191 27.8662C37.4818 28.5613 36.9907 29.1704 36.3829 29.6474C35.9584 28.9067 35.3467 28.2906 34.6089 27.8609C33.8712 27.4312 33.0335 27.2031 32.1797 27.1994C31.9984 27.1994 31.8244 27.2714 31.6962 27.3996C31.568 27.5279 31.4959 27.7018 31.4959 27.8832C31.4959 28.0645 31.568 28.2385 31.6962 28.3667C31.8244 28.4949 31.9984 28.567 32.1797 28.567C32.8995 28.5892 33.5967 28.824 34.1832 29.2418C34.7698 29.6596 35.2195 30.2417 35.4757 30.9147C35.6867 31.4174 35.7803 31.9615 35.7492 32.5057C35.679 33.4605 35.2362 34.3494 34.5164 34.9805C33.7965 35.6117 32.8574 35.9345 31.9016 35.8792C31.6018 35.8559 31.3062 35.7946 31.0218 35.6969C30.8588 35.6433 30.6816 35.6529 30.5254 35.7238C30.3692 35.7947 30.2453 35.9218 30.1784 36.0798C29.806 36.9556 29.1471 37.679 28.3097 38.1312C27.4723 38.5834 26.5061 38.7378 25.5695 38.5689C24.5927 38.3639 23.7175 37.8257 23.0938 37.0464C22.4701 36.2672 22.1366 35.2954 22.1505 34.2973V4.50132C22.1395 3.76845 22.3885 3.0554 22.8534 2.48872C23.3182 1.92205 23.9688 1.53842 24.6897 1.40592C24.8511 1.38141 25.0142 1.36922 25.1775 1.36945C25.871 1.36716 26.5435 1.60745 27.0785 2.04871C27.397 2.31101 27.6587 2.63548 27.8475 3.0023C28.0364 3.36912 28.1486 3.77059 28.1771 4.1822C27.5899 4.5568 27.106 5.07278 26.7699 5.68288C26.4338 6.29297 26.2562 6.97766 26.2534 7.67421C26.2534 7.85557 26.3254 8.0295 26.4536 8.15774C26.5819 8.28598 26.7558 8.35802 26.9372 8.35802C27.1185 8.35802 27.2925 8.28598 27.4207 8.15774C27.5489 8.0295 27.621 7.85557 27.621 7.67421C27.6225 6.95653 27.8996 6.26683 28.395 5.74761C28.8905 5.22839 29.5665 4.91932 30.2833 4.88425C30.8075 4.9344 31.4139 5.21248 32.1889 6.02394C32.4581 6.29255 32.6638 6.61813 32.7906 6.97672C32.9548 7.49895 32.9371 8.0614 32.7405 8.57229C32.715 8.64709 32.7026 8.72576 32.704 8.80478C32.704 8.80478 32.704 8.84125 32.704 8.85493C32.677 8.95996 32.6753 9.06991 32.6991 9.17571C32.723 9.28151 32.7717 9.38012 32.8411 9.4634C32.9106 9.54668 32.9989 9.61224 33.0987 9.65467C33.1985 9.69709 33.307 9.71518 33.4152 9.70742H33.5884C33.9567 9.70622 34.3217 9.77773 34.6623 9.91786C35.003 10.058 35.3126 10.264 35.5735 10.524C35.8344 10.7841 36.0414 11.093 36.1826 11.4332C36.3239 11.7734 36.3966 12.1381 36.3966 12.5065C36.3925 12.7935 36.3433 13.0781 36.2507 13.3499C36.2057 13.4907 36.2076 13.6424 36.2561 13.7822C36.3046 13.9219 36.3971 14.0421 36.5197 14.1248C37.0525 14.4791 37.4958 14.9522 37.8145 15.5071C38.1333 16.0619 38.3187 16.6832 38.3563 17.3219C38.3939 17.9607 38.2825 18.5994 38.031 19.1878C37.7796 19.7761 37.3948 20.298 36.9072 20.7122C36.8717 20.7438 36.8396 20.7789 36.8114 20.8171C36.1087 21.3259 35.2628 21.5988 34.3953 21.5966C33.293 21.5954 32.2362 21.157 31.4568 20.3776C30.6773 19.5981 30.2389 18.5413 30.2377 17.4391C30.2377 17.2577 30.1657 17.0838 30.0374 16.9555C29.9092 16.8273 29.7352 16.7552 29.5539 16.7552C29.3725 16.7552 29.1986 16.8273 29.0704 16.9555C28.9421 17.0838 28.8701 17.2577 28.8701 17.4391C28.8749 18.9013 29.4582 20.3023 30.4926 21.3358C31.527 22.3694 32.9285 22.9515 34.3907 22.9552C35.318 22.9588 36.231 22.7266 37.0439 22.2805C37.8677 23.2044 38.325 24.3978 38.3295 25.6357Z" fill="#FF7200"/>
<path d="M15.2616 0.0560487C14.6505 -0.0430163 14.0254 -0.0104861 13.4279 0.151465C12.8304 0.313416 12.2744 0.601055 11.797 0.995152C11.0027 1.64897 10.4624 2.56025 10.2698 3.57085C10.0201 3.52635 9.7665 3.50802 9.51303 3.51614H9.43097C9.37797 3.50987 9.32442 3.50987 9.27142 3.51614C8.48275 3.60276 7.571 3.99937 6.53616 5.06156C6.12496 5.47902 5.8133 5.98391 5.62441 6.5386C5.43244 7.12704 5.39476 7.75492 5.515 8.3621C4.53098 8.50998 3.63225 9.00477 2.98103 9.75715C2.3298 10.5095 1.969 11.4699 1.96373 12.465C1.96389 12.727 1.99139 12.9882 2.04579 13.2445C1.44319 13.7303 0.950035 14.3379 0.598661 15.0276C0.247287 15.7172 0.0456228 16.4734 0.00688466 17.2464C-0.0318535 18.0194 0.0932093 18.7919 0.373876 19.5133C0.654544 20.2346 1.08448 20.8885 1.6355 21.432C1.04614 22.1148 0.606391 22.9135 0.344614 23.7766C0.082838 24.6397 0.00484315 25.5481 0.115658 26.4432C0.226473 27.3383 0.523638 28.2003 0.987995 28.9735C1.45235 29.7467 2.07359 30.4141 2.81166 30.9325C2.65498 31.4708 2.59328 32.0323 2.62931 32.5919C2.71595 33.9115 3.32315 35.1427 4.3174 36.0147C5.31164 36.8866 6.6115 37.3281 7.93114 37.2418C8.14584 37.2272 8.35916 37.1967 8.56937 37.1506C9.05259 38.0157 9.75848 38.7356 10.6138 39.2358C11.4691 39.736 12.4427 39.9983 13.4336 39.9953C14.1736 39.9944 14.9059 39.8451 15.5872 39.5562C16.2686 39.2673 16.885 38.8448 17.4002 38.3135C17.9153 37.7822 18.3187 37.153 18.5864 36.4631C18.8541 35.7731 18.9807 35.0366 18.9588 34.2968V4.50083C18.9683 3.44223 18.602 2.41457 17.925 1.60069C17.248 0.786799 16.3043 0.239461 15.2616 0.0560487ZM17.5911 34.2968C17.604 35.2981 17.2673 36.2724 16.639 37.0521C16.0108 37.8318 15.1303 38.368 14.1493 38.5684C13.2127 38.7364 12.2469 38.5817 11.4097 38.1296C10.5725 37.6775 9.91346 36.9546 9.54038 36.0793C9.48963 35.9581 9.40501 35.8541 9.29668 35.7797C9.18834 35.7053 9.06087 35.6637 8.92951 35.6599C8.85836 35.6594 8.78759 35.6702 8.71981 35.6918C8.43542 35.7896 8.13978 35.8508 7.83997 35.8742C6.88248 35.9367 5.93935 35.6165 5.21787 34.9839C4.49639 34.3513 4.0556 33.4581 3.99238 32.5007C3.96204 31.958 4.05558 31.4155 4.2659 30.9142C4.54649 30.2342 5.01855 29.6504 5.62471 29.2336C6.23086 28.8168 6.94503 28.5851 7.68041 28.5665C7.86177 28.5665 8.0357 28.4944 8.16394 28.3662C8.29218 28.238 8.36422 28.064 8.36422 27.8827C8.36422 27.7013 8.29218 27.5274 8.16394 27.3992C8.0357 27.2709 7.86177 27.1989 7.68041 27.1989C6.81617 27.2138 5.96963 27.4464 5.21905 27.875C4.46846 28.3037 3.83805 28.9147 3.38607 29.6515C2.83441 29.2215 2.37761 28.6821 2.04435 28.0672C1.71108 27.4523 1.50856 26.7751 1.44948 26.0781C1.3904 25.3812 1.47605 24.6796 1.70106 24.0174C1.92606 23.3551 2.28555 22.7465 2.75696 22.2298C3.59647 22.7045 4.54566 22.9509 5.51003 22.9446C6.4744 22.9383 7.4203 22.6795 8.25354 22.1939C9.08678 21.7084 9.77828 21.013 10.2592 20.1771C10.7401 19.3412 10.9937 18.3939 10.9946 17.4295C10.9946 17.2481 10.9226 17.0742 10.7943 16.9459C10.6661 16.8177 10.4922 16.7456 10.3108 16.7456C10.1295 16.7456 9.95552 16.8177 9.82728 16.9459C9.69904 17.0742 9.627 17.2481 9.627 17.4295C9.62781 18.1951 9.41717 18.9461 9.0183 19.5997C8.61944 20.2533 8.04784 20.784 7.36654 21.1334C6.68524 21.4827 5.92069 21.6372 5.15719 21.5797C4.39369 21.5222 3.66089 21.255 3.0396 20.8075C2.97988 20.7652 2.91368 20.7328 2.84357 20.7118C2.35768 20.2974 1.97449 19.776 1.72409 19.1886C1.4737 18.6012 1.36292 17.9637 1.40047 17.3262C1.43802 16.6887 1.62287 16.0687 1.9405 15.5147C2.25813 14.9607 2.69989 14.4879 3.23107 14.1335C3.35368 14.0508 3.44617 13.9305 3.49467 13.7908C3.54316 13.6511 3.54505 13.4994 3.50003 13.3585C3.4034 13.0844 3.35108 12.7966 3.34504 12.506C3.34623 12.1373 3.42026 11.7724 3.56289 11.4324C3.70551 11.0923 3.91392 10.7838 4.17614 10.5246C4.43835 10.2653 4.74921 10.0604 5.09085 9.92167C5.43249 9.78292 5.79818 9.71304 6.1669 9.71605H6.30367C6.41178 9.72492 6.52044 9.70759 6.62043 9.66553C6.72043 9.62347 6.8088 9.55792 6.87807 9.47443C6.94714 9.39136 6.99555 9.2931 7.01932 9.18771C7.04309 9.08232 7.04155 8.9728 7.01483 8.86812C7.01483 8.86812 7.01483 8.83165 7.01483 8.81797C7.0162 8.73895 7.00386 8.66028 6.97836 8.58548C6.78136 8.07466 6.76368 7.51209 6.92822 6.98991C7.06235 6.62334 7.27918 6.29262 7.56188 6.02346C8.35511 5.19376 8.9751 4.92024 9.50847 4.88377C10.2389 4.90043 10.9339 5.20204 11.445 5.7242C11.9561 6.24635 12.2427 6.94764 12.2437 7.67828C12.2437 7.85964 12.3158 8.03357 12.444 8.16181C12.5722 8.29005 12.7462 8.3621 12.9275 8.3621C13.1089 8.3621 13.2828 8.29005 13.4111 8.16181C13.5393 8.03357 13.6114 7.85964 13.6114 7.67828C13.6108 6.96035 13.4245 6.25477 13.0706 5.6301C12.7168 5.00543 12.2073 4.48292 11.5918 4.11334C11.6282 3.71425 11.7431 3.32629 11.9301 2.97186C12.1171 2.61742 12.3725 2.30351 12.6814 2.04822C13.0111 1.77765 13.3946 1.58038 13.8065 1.46955C14.2184 1.35872 14.6492 1.33686 15.0702 1.40544C15.7877 1.54175 16.434 1.92702 16.8952 2.49332C17.3564 3.05962 17.6029 3.77058 17.5911 4.50083V34.2968Z" fill="#FF7200"/>
</g>
<defs>
<clipPath id="clip0_304_509">
<rect width="40" height="40" fill="white"/>
</clipPath>
</defs>
</svg>
