<svg width="40" height="40" viewBox="0 0 40 40" fill="none" xmlns="http://www.w3.org/2000/svg">
<g clip-path="url(#clip0_304_397)">
<path d="M37.971 20.0074C39.0265 19.328 39.7202 18.2029 39.7202 16.9303C39.7202 14.8664 37.8899 13.1877 35.6401 13.1877H24.769C25.283 12.2244 25.8033 10.6458 25.6844 8.29513C25.4507 3.47628 22.5267 0.976284 20.8356 0.258642C19.8382 -0.164477 18.7527 -0.0639977 17.9328 0.527355C17.1096 1.12101 16.1804 2.48439 16.4288 5.60939C16.686 8.85699 12.5521 12.3797 10.5379 13.8934V12.6572C10.5379 12.2751 10.2286 11.9658 9.8465 11.9658H0.691371C0.309273 11.9658 0 12.2751 0 12.6572V37.6304C0 38.0121 0.309273 38.3218 0.691371 38.3218H9.8465C10.2286 38.3218 10.5379 38.0121 10.5379 37.6304V36.3689C13.1439 37.306 20.4719 39.8308 24.0933 39.9493L31.3652 40C33.6121 40 35.4401 38.2462 35.4401 36.091C35.4401 35.0986 35.0511 34.1943 34.4155 33.5034C36.355 33.2015 37.8419 31.5916 37.8419 29.6506C37.8419 28.6168 37.4174 27.6779 36.7307 26.9783C38.4522 26.5192 39.7206 25.0065 39.7206 23.2117C39.7202 21.8861 39.0269 20.7145 37.971 20.0074ZM1.38274 36.9386V13.3481H9.15513V15.201C9.15421 15.2194 9.15467 15.2379 9.15513 15.2563V35.3678C9.15467 35.3867 9.15375 35.4056 9.15513 35.4245V36.9391H1.38274V36.9386ZM35.6401 25.7412H32.0962C32.0948 25.7412 32.0934 25.7416 32.0916 25.7416H31.3652C30.9835 25.7416 30.6738 26.0514 30.6738 26.433C30.6738 26.8146 30.9835 27.1244 31.3652 27.1244H33.7596C35.2479 27.1244 36.4587 28.2578 36.4587 29.6502C36.4587 31.0426 35.2479 32.1755 33.7596 32.1755H31.3744C31.3712 32.1755 31.3684 32.1751 31.3652 32.1751H28.8237C28.4421 32.1751 28.1323 32.4848 28.1323 32.8664C28.1323 33.2481 28.4421 33.5578 28.8237 33.5578H31.3606C31.3619 33.5578 31.3633 33.5583 31.3652 33.5583H31.3744C32.8544 33.5633 34.0569 34.6967 34.0569 36.0905C34.0569 37.4834 32.8493 38.6168 31.3698 38.6168L24.1205 38.5666C20.5153 38.4481 12.5198 35.6181 10.5379 34.8972V15.602C12.0354 14.5719 18.1688 10.0595 17.8069 5.50015C17.653 3.56201 17.9849 2.19448 18.7412 1.64922C19.3704 1.19614 20.0898 1.44549 20.2959 1.53215C21.6897 2.12396 24.103 4.22849 24.3035 8.36427C24.4856 11.9585 23.03 13.303 22.9742 13.3527C22.7535 13.5408 22.6733 13.8459 22.7728 14.1183C22.8733 14.3903 23.1319 14.5709 23.4218 14.5709H35.6397C37.1271 14.5709 38.337 15.6297 38.337 16.9308C38.337 18.2384 37.1271 19.3027 35.6397 19.3027H32.6839C32.3022 19.3027 31.9925 19.6119 31.9925 19.994C31.9925 20.3761 32.3022 20.6854 32.6839 20.6854H35.6397C37.1271 20.6854 38.337 21.8183 38.337 23.2117C38.3374 24.6059 37.1275 25.7412 35.6401 25.7412Z" fill="#FF7200"/>
</g>
<defs>
<clipPath id="clip0_304_397">
<rect width="40" height="40" fill="white"/>
</clipPath>
</defs>
</svg>
