<svg width="40" height="40" viewBox="0 0 40 40" fill="none" xmlns="http://www.w3.org/2000/svg">
<path d="M39.3158 3.3999H7.7081C7.52566 3.3999 7.34321 3.49112 7.20639 3.62795L0.18244 10.8799C0.13683 10.9256 0.0912202 11.0168 0.0456102 11.108C1.73309e-07 11.1992 0 11.2904 0 11.336V35.9198C0 36.2847 0.31927 36.604 0.68415 36.604H35.8039C36.1688 36.604 36.488 36.2847 36.488 35.9198V33.1376H39.3158C39.6807 33.1376 40 32.8184 40 32.4535V24.1981V24.1525C40 24.1069 40 24.1069 40 24.0612V14.0726V4.08405C40 3.71917 39.6807 3.3999 39.3158 3.3999ZM7.98176 4.7682H38.5861V13.8446L36.4424 16.49V11.3817C36.4424 11.0168 36.1231 10.6975 35.7583 10.6975H2.2805L7.98176 4.7682ZM35.1197 35.2813H1.3683V12.0658H35.1197V17.7215H27.2748C24.0821 17.7215 21.5279 20.3212 21.5279 23.4683C21.5279 26.661 24.1277 29.2152 27.2748 29.2152H35.1197V35.2813ZM35.5758 27.8469H27.2748C24.8575 27.8469 22.8962 25.8856 22.8962 23.4683C22.8962 21.051 24.8575 19.0898 27.2748 19.0898H35.8039C36.0319 19.0898 36.2144 18.9985 36.3512 18.8161L38.6317 16.0339V23.97L35.5758 27.8469ZM38.6317 31.7693H36.488V28.9415L38.6317 26.2049V31.7693Z" fill="#FF7200"/>
<path d="M12.0875 8.32631H29.4193C29.7842 8.32631 30.1034 8.00704 30.1034 7.64216C30.1034 7.27728 29.7842 6.95801 29.4193 6.95801H12.0875C11.7226 6.95801 11.4033 7.27728 11.4033 7.64216C11.4033 8.00704 11.677 8.32631 12.0875 8.32631Z" fill="#FF7200"/>
</svg>
