<svg width="40" height="40" viewBox="0 0 40 40" fill="none" xmlns="http://www.w3.org/2000/svg">
<path d="M12.1445 21.4809C16.0898 21.4809 19.2995 18.2712 19.2995 14.3259C19.2995 10.3806 16.0898 7.1709 12.1445 7.1709C8.19924 7.1709 4.9895 10.3806 4.9895 14.3259C4.9895 18.2712 8.19924 21.4809 12.1445 21.4809ZM12.1445 8.42535C15.3981 8.42535 18.045 11.0723 18.045 14.3259C18.045 17.5795 15.3981 20.2264 12.1445 20.2264C8.89086 20.2264 6.24396 17.5795 6.24396 14.3259C6.24396 11.0723 8.89086 8.42535 12.1445 8.42535Z" fill="#FF7200"/>
<path d="M12.143 18.7158C13.4757 18.7158 14.6432 17.8649 15.0488 16.5992C15.1542 16.2692 14.9727 15.9163 14.6428 15.8105C14.3133 15.7064 13.9599 15.887 13.8541 16.2165C13.6158 16.9613 12.9283 17.4618 12.1435 17.4618C11.3586 17.4618 10.6712 16.9613 10.4332 16.2161C10.3279 15.8862 9.97451 15.7031 9.64501 15.8097C9.31509 15.9151 9.13277 16.268 9.23857 16.5979C9.6425 17.8645 10.81 18.7158 12.143 18.7158Z" fill="#FF7200"/>
<path d="M28.8537 19.4902C25.2095 19.4902 21.7882 21.2787 19.7004 24.2743C19.6899 24.2894 19.6799 24.3048 19.6707 24.3207L19.4215 24.7556C17.4164 23.3485 14.9778 22.5193 12.348 22.5193C5.53926 22.5193 0 28.0594 0 34.8694C0 35.2157 0.28058 35.4967 0.627228 35.4967H24.0692C24.4155 35.4967 24.6965 35.2157 24.6965 34.8694C24.6965 33.6158 24.5075 32.4057 24.1587 31.265H39.3728C39.719 31.265 40 30.984 40 30.6377C40 24.4909 35.0002 19.4902 28.8537 19.4902ZM1.27202 34.2426C1.5986 28.4153 6.44163 23.7742 12.348 23.7742C18.2544 23.7742 23.0979 28.4157 23.4245 34.2426H1.27202ZM23.6992 30.0109C22.9553 28.2794 21.8254 26.7531 20.4205 25.5359L20.7454 24.9693C22.6003 22.3236 25.6294 20.7447 28.8542 20.7447C34.0978 20.7447 38.4014 24.8468 38.7259 30.0109H23.6992Z" fill="#FF7200"/>
<path d="M28.6713 18.6858C32.2477 18.6858 35.1572 15.7763 35.1572 12.1998C35.1572 8.62337 32.2477 5.71387 28.6713 5.71387C25.0948 5.71387 22.1853 8.62337 22.1853 12.1998C22.1853 15.7763 25.0948 18.6858 28.6713 18.6858ZM28.6713 6.96832C31.5557 6.96832 33.9028 9.31499 33.9028 12.1998C33.9028 15.0847 31.5561 17.4313 28.6713 17.4313C25.7864 17.4313 23.4398 15.0847 23.4398 12.1998C23.4398 9.31499 25.7864 6.96832 28.6713 6.96832Z" fill="#FF7200"/>
<path d="M28.6698 16.2047C29.7369 16.2047 30.6731 15.5227 30.9997 14.5074C31.1059 14.1775 30.9244 13.8242 30.5949 13.7184C30.2646 13.6122 29.9117 13.7936 29.8055 14.1231C29.6461 14.6178 29.1895 14.9502 28.6693 14.9502C28.1492 14.9502 27.6925 14.6182 27.5336 14.1235C27.4278 13.794 27.0783 13.6126 26.7446 13.7179C26.4151 13.8237 26.2332 14.1771 26.3394 14.507C26.666 15.5227 27.6022 16.2047 28.6698 16.2047Z" fill="#FF7200"/>
</svg>
