<svg width="40" height="40" viewBox="0 0 40 40" fill="none" xmlns="http://www.w3.org/2000/svg">
<path d="M39.8224 32.6446C39.8441 32.5776 39.8589 32.5069 39.8589 32.4324V7.8679C39.8589 7.793 39.8441 7.72179 39.8219 7.65429C39.8187 7.64504 39.8168 7.63579 39.8131 7.62654C39.7835 7.54748 39.7401 7.47627 39.6855 7.41385C39.6818 7.40969 39.6814 7.4046 39.6777 7.40044C39.6753 7.39813 39.6726 7.39721 39.6703 7.39489C39.612 7.33294 39.5431 7.283 39.4659 7.24555C39.4599 7.24277 39.4552 7.23907 39.4492 7.2363C39.3762 7.20347 39.2967 7.18498 39.213 7.17943C39.2046 7.17897 39.1968 7.17712 39.1885 7.17712C39.1806 7.17665 39.1737 7.1748 39.1658 7.1748H0.694022C0.686162 7.1748 0.678764 7.17665 0.670904 7.17712C0.663506 7.17758 0.656108 7.17897 0.64871 7.17943C0.564095 7.18498 0.48318 7.20393 0.4092 7.23723C0.404577 7.23907 0.400878 7.24231 0.396254 7.24416C0.31765 7.28161 0.247832 7.33247 0.189111 7.39536C0.186799 7.39767 0.184024 7.39813 0.181713 7.40044C0.178014 7.40414 0.177551 7.40923 0.173852 7.41339C0.119292 7.47581 0.0753669 7.54748 0.045775 7.62654C0.042076 7.63579 0.0402265 7.64504 0.0369898 7.65475C0.0147959 7.72225 0 7.79346 0 7.86836V32.4333C0 32.5092 0.0152582 32.5813 0.0379145 32.6497C0.0411511 32.659 0.0430007 32.6678 0.0462373 32.677C0.0762916 32.7565 0.120679 32.8282 0.175702 32.8906C0.178938 32.8943 0.179863 32.8989 0.1831 32.9026C0.185874 32.9059 0.189573 32.9077 0.19281 32.911C0.215466 32.9346 0.240434 32.9554 0.266327 32.9757C0.277886 32.9845 0.288059 32.9951 0.30008 33.0034C0.330597 33.0247 0.363425 33.0418 0.397179 33.0575C0.405501 33.0612 0.412899 33.0672 0.421222 33.0705C0.504912 33.1061 0.596924 33.1264 0.69356 33.1264H39.1649C39.2615 33.1264 39.3535 33.1066 39.4372 33.0705C39.4502 33.0649 39.4622 33.0566 39.4747 33.0501C39.5033 33.0358 39.532 33.021 39.5584 33.003C39.5722 32.9933 39.5847 32.9808 39.5981 32.9702C39.6217 32.9512 39.6448 32.9322 39.6652 32.9105C39.6689 32.9068 39.673 32.904 39.6767 32.9003C39.6804 32.8962 39.6814 32.8906 39.6851 32.8865C39.7391 32.8245 39.7826 32.7533 39.8122 32.6747C39.8168 32.6645 39.8191 32.6548 39.8224 32.6446ZM1.38758 9.4409L13.0611 20.1037L1.38758 30.8516V9.4409ZM25.3136 19.5812C25.2655 19.6126 25.2146 19.639 25.1744 19.6834C25.1591 19.7 25.154 19.7218 25.1406 19.7393L19.9297 24.499L2.48156 8.56146H37.3778L25.3136 19.5812ZM14.0894 21.0428L19.4618 25.9499C19.5945 26.0711 19.7618 26.1317 19.9297 26.1317C20.0975 26.1317 20.2649 26.0711 20.3971 25.9499L25.7029 21.1038L37.3746 31.7393H2.47139L14.0894 21.0428ZM26.7317 20.1643L38.4718 9.4409V30.8627L26.7317 20.1643Z" fill="#FF7200"/>
</svg>
