<svg width="40" height="40" viewBox="0 0 40 40" fill="none" xmlns="http://www.w3.org/2000/svg">
<path d="M39.9911 36.8459L34.7459 2.32695C34.7428 2.30725 34.7355 2.28911 34.7314 2.26941C34.7257 2.24556 34.721 2.22223 34.7132 2.1989C34.7034 2.16884 34.6904 2.14084 34.6769 2.11285C34.6676 2.09315 34.6593 2.07293 34.6484 2.05427C34.6313 2.02472 34.6111 1.99828 34.5904 1.97132C34.5805 1.95836 34.5733 1.94385 34.5629 1.93193C34.5608 1.92933 34.5577 1.92726 34.5551 1.92467C34.5271 1.89356 34.496 1.86661 34.4639 1.84069C34.4551 1.83343 34.4473 1.82462 34.4385 1.81788C34.3965 1.78729 34.3519 1.76085 34.3042 1.73908C34.2881 1.73182 34.2715 1.72768 34.255 1.72145C34.2218 1.70849 34.1891 1.69605 34.1544 1.68828C34.1347 1.68361 34.114 1.68206 34.0937 1.67895C34.0616 1.67376 34.0295 1.6691 33.9963 1.66858C33.9901 1.66858 33.9838 1.6665 33.9771 1.6665H2.63858C2.20882 1.6665 1.86097 2.01435 1.86097 2.44411V9.14706C1.86097 9.57682 2.20882 9.92467 2.63858 9.92467H4.75366L0.0118284 36.8283C-0.0280886 37.0548 0.0341198 37.287 0.181865 37.4633C0.32961 37.639 0.547858 37.7412 0.77751 37.7412H39.2223C39.4488 37.7412 39.6645 37.6421 39.8122 37.4706C39.96 37.2974 40.0253 37.0698 39.9911 36.8459ZM6.33324 9.92363H26.4473C26.877 9.92363 27.2249 9.57578 27.2249 9.14603C27.2249 8.71627 26.877 8.36842 26.4473 8.36842H3.41722V3.22068H33.0875L28.609 36.1844H1.70545L6.33324 9.92363ZM30.1782 36.1849L34.0206 7.9029L38.3182 36.1849H30.1782Z" fill="#FF7200"/>
</svg>
