<svg width="40" height="40" viewBox="0 0 40 40" fill="none" xmlns="http://www.w3.org/2000/svg">
<path d="M19.9039 21.0249C14.6524 21.0249 10.3799 25.297 10.3799 30.5485C10.3799 30.9059 10.6695 31.1959 11.0273 31.1959H28.7801C29.1375 31.1959 29.4275 30.9059 29.4275 30.5485C29.4275 25.297 25.155 21.0249 19.9039 21.0249ZM11.7002 29.9011C12.0317 25.6652 15.5847 22.3198 19.9039 22.3198C24.2231 22.3198 27.7762 25.6652 28.1072 29.9011H11.7002Z" fill="#FF7200"/>
<path d="M19.7489 20.1696C22.8319 20.1696 25.34 17.6615 25.34 14.5785C25.34 11.4954 22.8315 8.9873 19.7489 8.9873C16.6658 8.9873 14.1577 11.4954 14.1577 14.5785C14.1577 17.6615 16.6658 20.1696 19.7489 20.1696ZM19.7489 10.2822C22.1176 10.2822 24.0452 12.2093 24.0452 14.5785C24.0452 16.9472 22.1176 18.8748 19.7489 18.8748C17.3797 18.8748 15.4526 16.9476 15.4526 14.5785C15.4526 12.2093 17.3797 10.2822 19.7489 10.2822Z" fill="#FF7200"/>
<path d="M7.24597 24.5971C8.30817 24.5971 9.35139 24.8802 10.263 25.4163C10.5711 25.5984 10.9682 25.4944 11.1491 25.1867C11.3303 24.8785 11.2276 24.4814 10.919 24.3001C9.8089 23.6471 8.53866 23.3022 7.24597 23.3022C3.2505 23.3022 0 26.5527 0 30.5482C0 30.9056 0.289614 31.1956 0.647424 31.1956H8.8533C9.21111 31.1956 9.50073 30.9056 9.50073 30.5482C9.50073 30.1908 9.21111 29.9008 8.8533 29.9008H1.32981C1.65352 26.9226 4.18322 24.5971 7.24597 24.5971Z" fill="#FF7200"/>
<path d="M7.13104 22.2684C9.51399 22.2684 11.4532 20.3296 11.4532 17.9462C11.4532 15.5628 9.51442 13.624 7.13104 13.624C4.74766 13.624 2.80884 15.5628 2.80884 17.9462C2.80884 20.3292 4.74766 22.2684 7.13104 22.2684ZM7.13104 14.9189C8.8001 14.9189 10.1584 16.2767 10.1584 17.9462C10.1584 19.6153 8.80053 20.9736 7.13104 20.9736C5.46155 20.9736 4.10369 19.6157 4.10369 17.9462C4.10369 16.2767 5.46155 14.9189 7.13104 14.9189Z" fill="#FF7200"/>
<path d="M32.613 23.3022C31.3207 23.3022 30.0505 23.6475 28.9399 24.3001C28.6313 24.4814 28.5286 24.8781 28.7099 25.1862C28.8911 25.4953 29.2891 25.5976 29.596 25.4163C30.508 24.8802 31.5512 24.5971 32.613 24.5971C35.6757 24.5971 38.2054 26.9226 38.5291 29.9008H31.0069C30.6495 29.9008 30.3595 30.1908 30.3595 30.5482C30.3595 30.9056 30.6495 31.1956 31.0069 31.1956H39.2115C39.5689 31.1956 39.8589 30.9056 39.8589 30.5482C39.8589 26.5527 36.6084 23.3022 32.613 23.3022Z" fill="#FF7200"/>
<path d="M32.7279 22.2684C35.1109 22.2684 37.0501 20.3296 37.0501 17.9462C37.0501 15.5628 35.1113 13.624 32.7279 13.624C30.3445 13.624 28.4053 15.5628 28.4053 17.9462C28.4057 20.3292 30.3445 22.2684 32.7279 22.2684ZM32.7279 14.9189C34.397 14.9189 35.7553 16.2767 35.7553 17.9462C35.7553 19.6153 34.3974 20.9736 32.7279 20.9736C31.0584 20.9736 29.7001 19.6157 29.7001 17.9462C29.7006 16.2767 31.0584 14.9189 32.7279 14.9189Z" fill="#FF7200"/>
</svg>
