<svg width="40" height="40" viewBox="0 0 40 40" fill="none" xmlns="http://www.w3.org/2000/svg">
<g clip-path="url(#clip0_304_315)">
<path d="M14.6588 38.3145C16.6625 39.4365 18.6359 40.0001 20.4743 40.0001C22.0132 39.9996 23.4574 39.6044 24.7427 38.811L29.4805 35.8884C29.6514 35.783 29.7734 35.6147 29.8197 35.4191C29.8661 35.224 29.8323 35.0184 29.727 34.8475L25.6203 28.1917C25.515 28.0214 25.3461 27.8994 25.151 27.853C24.9544 27.8071 24.7498 27.8404 24.5794 27.9458L19.8059 30.892C19.0719 31.3447 18.1303 31.4894 17.2245 31.2903C16.3187 31.0907 15.5455 30.5654 15.1029 29.8476L8.61502 19.3332C7.67694 17.8129 8.14976 15.8128 9.66903 14.8747C9.66903 14.8747 9.66953 14.8747 9.66953 14.8742L14.624 11.8155C14.9794 11.5962 15.0893 11.1305 14.87 10.7751L10.7629 4.12089C10.5436 3.76552 10.0773 3.65412 9.72246 3.8744L4.77199 6.93007C-0.745563 10.3356 -0.552 19.2752 5.2438 28.6701C7.90075 32.9779 11.2448 36.403 14.6588 38.3145ZM5.56691 8.21645L9.87368 5.55849L13.1869 10.9258L8.87562 13.5873C8.87461 13.5878 8.87411 13.5883 8.8736 13.5888C6.64662 14.9654 5.95302 17.8976 7.32863 20.1266L13.8165 30.6405C14.4723 31.7046 15.5964 32.4794 16.8999 32.7667C18.1858 33.0485 19.5352 32.8352 20.6003 32.1779L24.7301 29.6288L28.0429 34.9972L23.9483 37.5231C20.9582 39.368 17.648 38.254 15.3978 36.9943C12.2045 35.2059 9.05507 31.9677 6.53069 27.8757C1.20267 19.239 0.806468 11.1547 5.56691 8.21645Z" fill="#FF7200"/>
<path d="M19.7314 12.0597C22.1781 12.2044 24.3436 13.4616 25.6733 15.5096C26.9446 17.4614 27.2506 19.8532 26.5121 22.0721C26.38 22.4683 26.5943 22.8967 26.9905 23.0278C27.0696 23.0545 27.1498 23.0666 27.2294 23.0666C27.5465 23.0666 27.8413 22.8665 27.9467 22.5494C28.8318 19.891 28.4649 17.0238 26.9411 14.6849C25.3714 12.2664 22.7089 10.7204 19.8206 10.5495C19.3997 10.5319 19.0458 10.8429 19.0211 11.2598C18.9964 11.6771 19.3145 12.035 19.7314 12.0597Z" fill="#FF7200"/>
<path d="M20.7888 6.44761C24.7508 6.90279 28.2677 9.07684 30.4377 12.4113C32.5402 15.6439 33.136 19.624 32.0719 23.3314C31.9565 23.7332 32.1884 24.1516 32.5896 24.2665C32.6597 24.2867 32.7292 24.2962 32.7988 24.2962C33.1269 24.2962 33.4299 24.08 33.5247 23.7488C34.7097 19.62 34.0464 15.1867 31.705 11.5866C29.2885 7.87312 25.3728 5.45258 20.9612 4.94548C20.5544 4.8976 20.1718 5.1955 20.124 5.61035C20.0761 6.0252 20.3735 6.39972 20.7888 6.44761Z" fill="#FF7200"/>
<path d="M21.8247 1.50435C27.0867 2.23576 31.7655 5.20977 34.6618 9.66424C37.4993 14.0229 38.3501 19.4064 36.9972 24.434C36.8883 24.8373 37.1278 25.2521 37.531 25.3605C37.5965 25.3781 37.6631 25.3867 37.7281 25.3867C38.0613 25.3867 38.3673 25.1649 38.4575 24.8272C39.9223 19.3852 39.0009 13.5577 35.9296 8.83958C32.7943 4.01815 27.7294 0.798654 22.0339 0.00676034C21.6221 -0.0481833 21.238 0.237625 21.181 0.651466C21.123 1.0648 21.4114 1.44689 21.8247 1.50435Z" fill="#FF7200"/>
</g>
<defs>
<clipPath id="clip0_304_315">
<rect width="40" height="39.9996" fill="white"/>
</clipPath>
</defs>
</svg>
