<svg width="40" height="40" viewBox="0 0 40 40" fill="none" xmlns="http://www.w3.org/2000/svg">
<path d="M26.0137 14.6835L12.8546 25.141C12.5932 25.3589 12.506 25.7946 12.7675 26.0561C12.8982 26.2304 13.0725 26.3175 13.2904 26.3175C13.4211 26.3175 13.5954 26.2739 13.6825 26.1868L26.8416 15.7293C27.103 15.5114 27.1901 15.0757 26.9287 14.8142C26.7108 14.5092 26.3187 14.4657 26.0137 14.6835Z" fill="#FF7200"/>
<path d="M16.3827 19.3457C16.557 19.3457 16.7313 19.3457 16.9055 19.3021C18.692 19.0407 19.9557 17.3413 19.6506 15.5113C19.5199 14.6398 19.0406 13.8555 18.3435 13.3326C17.6463 12.8098 16.7748 12.5919 15.9034 12.7226C15.0319 12.8533 14.2476 13.3326 13.7247 14.0298C13.2018 14.727 12.984 15.5984 13.1147 16.4699C13.3761 18.1692 14.814 19.3457 16.3827 19.3457ZM16.0777 14.0734C16.1648 14.0734 16.2955 14.0298 16.3827 14.0298C17.3413 14.0298 18.2127 14.727 18.3435 15.7291C18.5177 16.8185 17.777 17.8206 16.6877 17.9949C15.5984 18.1692 14.5962 17.4285 14.4219 16.3392C14.2476 15.2498 15.0319 14.2477 16.0777 14.0734Z" fill="#FF7200"/>
<path d="M23.3553 21.5244C21.5252 21.5244 20.0437 23.0059 20.0437 24.836C20.0437 26.666 21.5252 28.1475 23.3553 28.1475C25.1853 28.1475 26.6668 26.666 26.6668 24.836C26.6232 23.0059 25.1418 21.5244 23.3553 21.5244ZM23.3553 26.7967C22.2659 26.7967 21.3509 25.8817 21.3509 24.7924C21.3509 23.7031 22.2659 22.788 23.3553 22.788C24.4446 22.788 25.3596 23.7031 25.3596 24.7924C25.316 25.9253 24.4446 26.7967 23.3553 26.7967Z" fill="#FF7200"/>
<path d="M39.6514 20C39.6514 19.9564 39.695 19.8693 39.695 19.8257C39.695 17.9521 37.7342 16.9935 36.0349 16.1656C34.8148 15.5556 33.5076 14.902 33.159 14.1176C32.8105 13.2898 33.2898 11.939 33.7691 10.6754C34.4227 8.88889 35.0763 7.05882 33.8562 5.83878C32.6362 4.61874 30.8932 5.05447 29.1503 5.44662C27.9303 5.70806 26.6667 6.01307 25.8388 5.66449C25.0109 5.3159 24.3137 4.22658 23.6601 3.18083C22.7015 1.69935 21.6558 0 19.8257 0C17.9956 0 16.9499 1.69935 16.0349 3.2244C15.3813 4.31373 14.7277 5.40305 13.8998 5.75163C13.0719 6.10022 11.7647 5.79521 10.5447 5.4902C8.80174 5.05447 7.01525 4.61874 5.83878 5.79521C4.61874 7.01525 5.22876 8.84532 5.79521 10.6318C6.23094 11.939 6.62309 13.2462 6.27451 14.1176C5.92593 14.9455 4.70588 15.5556 3.52941 16.1656C1.87364 17.037 0 17.9956 0 19.8257C0 19.8693 -4.22037e-08 19.9564 0.0435729 20C0.0435729 20.0436 0 20.1307 0 20.1743C0 22.0044 1.87364 23.0065 3.52941 23.8344C4.70588 24.4444 5.92593 25.0545 6.27451 25.8824C6.62309 26.7102 6.18737 28.061 5.79521 29.3682C5.22876 31.1547 4.61874 32.9847 5.83878 34.2048C7.05882 35.4248 8.84532 34.9455 10.5447 34.5098C11.7647 34.2048 13.0719 33.8998 13.8998 34.2484C14.7277 34.597 15.3813 35.6863 16.0349 36.7756C16.9499 38.3007 17.9956 40 19.8257 40C21.6558 40 22.7451 38.3007 23.6601 36.8192C24.3137 35.7734 25.0109 34.6841 25.8388 34.3355C26.7102 33.9869 27.9303 34.2484 29.1503 34.5534C30.8497 34.9455 32.6362 35.3813 33.8562 34.1612C35.0763 32.9412 34.4227 31.1111 33.7691 29.3246C33.2898 28.0174 32.8105 26.7102 33.159 25.8824C33.5076 25.0545 34.7712 24.4444 36.0349 23.8344C37.7342 22.963 39.695 22.0044 39.695 20.1743C39.695 20.0871 39.6514 20.0436 39.6514 20ZM35.4248 22.658C33.9869 23.3987 32.4619 24.1394 31.939 25.4031C31.3726 26.7102 31.9826 28.2789 32.5054 29.8039C33.0283 31.2418 33.5512 32.6362 32.8976 33.2462C32.2004 33.9434 30.8497 33.6383 29.4118 33.2898C27.9739 32.9412 26.5359 32.6362 25.2723 33.159C24.0523 33.6819 23.268 34.902 22.5272 36.122C21.6993 37.4292 20.915 38.6928 19.7821 38.6928C18.6928 38.6928 17.9085 37.4292 17.0806 36.0784C16.3399 34.8148 15.5556 33.5512 14.3355 33.0283C13.0719 32.5054 11.5904 32.854 10.1525 33.2462C8.7146 33.5948 7.36384 33.9434 6.66667 33.2898C6.01307 32.6362 6.4488 31.2418 6.9281 29.8039C7.40741 28.2789 7.93028 26.7102 7.36383 25.4466C6.84096 24.183 5.40305 23.4423 4.00872 22.7451C2.57081 22.0044 1.22004 21.3072 1.22004 20.2179C1.22004 20.1743 1.22004 20.0871 1.17647 20.0436C1.17647 20 1.22004 19.9129 1.22004 19.8693C1.22004 18.8235 2.57081 18.1264 4.00872 17.342C5.40305 16.6449 6.84096 15.9041 7.36383 14.6405C7.88671 13.3333 7.40741 11.7647 6.9281 10.2832C6.4488 8.80174 6.01307 7.40741 6.66667 6.79739C7.36384 6.10022 8.7146 6.4488 10.1525 6.84096C11.5904 7.18954 13.0719 7.5817 14.3355 7.05882C15.5556 6.53595 16.3399 5.27233 17.0806 4.00872C17.9085 2.65795 18.6492 1.39434 19.7821 1.39434C20.915 1.39434 21.6993 2.65795 22.5272 3.96514C23.3115 5.18519 24.0959 6.40523 25.2723 6.9281C26.5359 7.45098 27.9739 7.1024 29.4118 6.79739C30.8497 6.4488 32.2004 6.14379 32.8976 6.84096C33.5512 7.45098 33.0283 8.84532 32.5054 10.2832C31.939 11.8083 31.3726 13.3769 31.939 14.6841C32.4619 15.9477 33.9869 16.6885 35.4248 17.4292C36.9499 18.1699 38.3442 18.9107 38.3442 19.9564C38.3442 20 38.3442 20.0871 38.3878 20.1307C38.3878 20.1743 38.3442 20.2614 38.3442 20.305C38.3878 21.1765 36.9499 21.9172 35.4248 22.658Z" fill="#FF7200"/>
</svg>
