<svg width="40" height="40" viewBox="0 0 40 40" fill="none" xmlns="http://www.w3.org/2000/svg">
<path d="M19.7333 11.71C15.3091 11.71 11.7097 15.3093 11.7097 19.7336C11.7097 24.1578 15.3091 27.7572 19.7333 27.7572C24.1576 27.7572 27.7569 24.1578 27.7569 19.7336C27.7569 15.3093 24.1576 11.71 19.7333 11.71ZM19.7333 26.456C16.0264 26.456 13.0108 23.4405 13.0108 19.7336C13.0108 16.0267 16.0264 13.0111 19.7333 13.0111C23.4402 13.0111 26.4558 16.0267 26.4558 19.7336C26.4558 23.4405 23.4402 26.456 19.7333 26.456Z" fill="#FF7200"/>
<path d="M39.3477 16.4813L34.1571 15.6959C33.8717 14.7339 33.4861 13.7997 33.0073 12.9093L36.1196 8.68803C36.3104 8.42911 36.2836 8.06957 36.0563 7.84187L32.0592 3.84525C31.8315 3.61799 31.472 3.59067 31.2131 3.7815L27.0052 6.88338C26.1109 6.39762 25.1707 6.00642 24.2009 5.71627L23.4198 0.553411C23.3716 0.23507 23.0984 0 22.7766 0H17.1245C16.8027 0 16.5295 0.23507 16.4813 0.553411L15.7002 5.71627C14.7305 6.00642 13.7902 6.39806 12.8959 6.88338L8.68804 3.7815C8.42911 3.59067 8.06957 3.61756 7.84187 3.84525L3.84525 7.84187C3.61799 8.06913 3.59067 8.42911 3.7815 8.68803L6.89379 12.9093C6.41497 13.7997 6.02941 14.7339 5.74403 15.6959L0.553411 16.4813C0.23507 16.5295 0 16.8027 0 17.1245V22.7766C0 23.0984 0.23507 23.3716 0.552977 23.4198L5.76918 24.2091C6.0576 25.1607 6.4423 26.0823 6.91721 26.9593L3.78106 31.2131C3.59023 31.472 3.61756 31.8315 3.84482 32.0592L7.84144 36.0559C8.0687 36.2836 8.42868 36.3104 8.6876 36.1196L12.9553 32.9735C13.8279 33.4419 14.7439 33.821 15.6876 34.1042L16.4809 39.3477C16.529 39.666 16.8023 39.9011 17.1241 39.9011H22.7762C23.098 39.9011 23.3712 39.666 23.4194 39.3477L24.2126 34.1042C25.1564 33.821 26.0723 33.4419 26.945 32.9735L31.2126 36.1196C31.4716 36.3104 31.8311 36.2831 32.0588 36.0559L36.0559 32.0592C36.2831 31.832 36.3104 31.472 36.1192 31.2131L32.983 26.9593C33.4584 26.0823 33.8431 25.1607 34.1311 24.2091L39.3473 23.4198C39.6652 23.3716 39.9002 23.0984 39.9002 22.7766V17.1245C39.9007 16.8031 39.6656 16.5295 39.3477 16.4813ZM38.5996 22.2171L33.5239 22.9852C33.2689 23.0238 33.0607 23.2094 32.993 23.458C32.6877 24.5834 32.2349 25.6677 31.6472 26.6813C31.5171 26.9055 31.5323 27.1852 31.6863 27.3939L34.7396 31.5353L31.534 34.7409L27.38 31.6784C27.1718 31.5254 26.8934 31.5093 26.67 31.6381C25.659 32.2188 24.5804 32.6656 23.4627 32.9653C23.2133 33.0325 23.0268 33.2407 22.9882 33.4966L22.2162 38.6009H17.6831L16.9111 33.4966C16.8725 33.2411 16.686 33.0325 16.4367 32.9653C15.319 32.6656 14.2404 32.2188 13.2294 31.6381C13.006 31.5097 12.7272 31.5258 12.5194 31.6784L8.36536 34.7409L5.15982 31.5353L8.21312 27.3939C8.36666 27.1852 8.38227 26.9055 8.25216 26.6813C7.66448 25.6681 7.21169 24.5834 6.90636 23.458C6.8387 23.209 6.63052 23.0238 6.3755 22.9852L1.29982 22.2171V17.684L6.35252 16.9198C6.60884 16.8812 6.81789 16.6938 6.88424 16.4432C7.1848 15.3086 7.63673 14.2122 8.2283 13.1843C8.35711 12.9605 8.34107 12.6816 8.18797 12.4739L5.15982 8.36622L8.36536 5.16069L12.4609 8.17973C12.6695 8.33326 12.9492 8.34887 13.1739 8.21833C14.2039 7.61981 15.306 7.16138 16.4484 6.85562C16.6982 6.78883 16.8847 6.58021 16.9233 6.32433L17.6831 1.30069H22.2162L22.9761 6.32433C23.0147 6.58021 23.2012 6.78883 23.451 6.85562C24.5934 7.16138 25.695 7.61981 26.7255 8.21833C26.9497 8.34931 27.2295 8.33326 27.4385 8.17973L31.534 5.16069L34.7396 8.36622L31.7114 12.4739C31.5583 12.6816 31.5423 12.9605 31.6711 13.1843C32.2622 14.2122 32.7146 15.3086 33.0151 16.4432C33.0815 16.6938 33.2905 16.8808 33.5469 16.9198L38.5996 17.684V22.2171Z" fill="#FF7200"/>
</svg>
