<svg width="40" height="40" viewBox="0 0 40 40" fill="none" xmlns="http://www.w3.org/2000/svg">
<path d="M39.4742 4.35398C39.2856 4.20587 39.0403 4.15235 38.807 4.21055L19.8881 8.85687L0.965537 4.21055C0.732727 4.15339 0.487446 4.20587 0.298288 4.35398C0.110169 4.50156 0 4.72762 0 4.96718V34.5325C0 34.8915 0.245282 35.2039 0.593977 35.2896L19.7026 39.9775C19.7639 39.9926 19.8262 39.9998 19.8881 39.9998C19.9499 39.9998 20.0123 39.9926 20.0736 39.9775L39.1786 35.2891C39.5273 35.2033 39.7725 34.891 39.7725 34.5319V4.96666C39.7725 4.72762 39.6624 4.50156 39.4742 4.35398ZM1.55899 5.9613L19.1086 10.2704V38.2268L1.55899 33.9208V5.9613V5.9613ZM38.2135 33.9208L20.6676 38.2268V10.2704L38.2135 5.9613V33.9208Z" fill="#FF7200"/>
<path d="M2.80513 1.53669L19.7031 5.68102C19.7644 5.69609 19.8257 5.70285 19.8855 5.70337C19.8865 5.70337 19.887 5.70389 19.8881 5.70389H19.8886H19.8891C19.8901 5.70389 19.8907 5.70337 19.8917 5.70337C19.952 5.70285 20.0133 5.69609 20.0741 5.68102L36.9674 1.53669C37.3857 1.4338 37.6414 1.01183 37.539 0.594023C37.4366 0.176213 37.0141 -0.079462 36.5963 0.0223923L19.8886 4.12099L3.17617 0.0223923C2.75732 -0.079462 2.33587 0.175693 2.2335 0.594023C2.13112 1.01235 2.3868 1.4338 2.80513 1.53669Z" fill="#FF7200"/>
</svg>
