<svg width="40" height="40" viewBox="0 0 40 40" fill="none" xmlns="http://www.w3.org/2000/svg">
<g clip-path="url(#clip0_304_299)">
<path d="M30.8237 12.6161C30.8237 10.0653 25.3408 8.7334 19.9191 8.7334C14.4975 8.7334 9.01929 10.0418 9.01929 12.6161C9.01929 15.0681 14.088 16.3812 19.2932 16.4941V33.0886C19.2932 33.2759 19.3676 33.4554 19.5 33.5878C19.6324 33.7202 19.8119 33.7946 19.9991 33.7946C20.1864 33.7946 20.3659 33.7202 20.4983 33.5878C20.6307 33.4554 20.7051 33.2759 20.7051 33.0886V16.4659C25.8538 16.3435 30.8237 15.0211 30.8237 12.6161ZM10.4312 12.6161C10.4312 11.7784 13.7821 10.1453 19.9238 10.1453C26.0656 10.1453 29.4118 11.7549 29.4118 12.6161C29.4118 13.4774 26.0609 15.0869 19.9191 15.0869C13.7774 15.0869 10.4312 13.435 10.4312 12.6161Z" fill="#FF7200"/>
<path d="M10.0461 20.6171H3.2925C3.22661 18.0569 2.88776 9.32195 1.34408 6.40403C1.30331 6.31786 1.24551 6.24084 1.17417 6.17762C1.10282 6.11439 1.01942 6.06627 0.92897 6.03615C0.838524 6.00604 0.742916 5.99455 0.647912 6.00239C0.552907 6.01023 0.460474 6.03722 0.376186 6.08175C0.291898 6.12628 0.217502 6.18742 0.157484 6.26148C0.0974654 6.33555 0.0530686 6.421 0.0269708 6.51268C0.000872939 6.60437 -0.00638541 6.70039 0.00563338 6.79495C0.0176522 6.88952 0.0486993 6.98067 0.0969022 7.06292C1.70176 10.1267 1.8806 21.2196 1.8806 21.3325V32.6277C1.8806 32.8149 1.95498 32.9945 2.08737 33.1269C2.21976 33.2593 2.39932 33.3336 2.58655 33.3336C2.77378 33.3336 2.95334 33.2593 3.08573 33.1269C3.21812 32.9945 3.2925 32.8149 3.2925 32.6277V26.7354H11.2933V32.6183C11.2933 32.8055 11.3676 32.9851 11.5 33.1175C11.6324 33.2499 11.812 33.3242 11.9992 33.3242C12.1864 33.3242 12.366 33.2499 12.4984 33.1175C12.6308 32.9851 12.7052 32.8055 12.7052 32.6183V23.2762C12.7039 22.5714 12.4234 21.8957 11.925 21.3973C11.4266 20.8989 10.7509 20.6184 10.0461 20.6171ZM3.2925 25.3235V22.029H10.0461C10.3769 22.029 10.6941 22.1604 10.928 22.3943C11.1619 22.6282 11.2933 22.9454 11.2933 23.2762V25.3235H3.2925Z" fill="#FF7200"/>
<path d="M39.6255 6.10745C39.4615 6.02375 39.2714 6.00742 39.0955 6.06193C38.9197 6.11644 38.7721 6.23748 38.6842 6.39924C37.1264 9.32187 36.7876 18.0568 36.7076 20.6171H29.954C29.2492 20.6183 28.5735 20.8989 28.0751 21.3973C27.5767 21.8957 27.2962 22.5713 27.2949 23.2761V32.6182C27.2949 32.8054 27.3693 32.985 27.5017 33.1174C27.6341 33.2498 27.8136 33.3241 28.0009 33.3241C28.1881 33.3241 28.3677 33.2498 28.5001 33.1174C28.6324 32.985 28.7068 32.8054 28.7068 32.6182V26.7353H36.7076V32.6182C36.7076 32.8054 36.782 32.985 36.9144 33.1174C37.0467 33.2498 37.2263 33.3241 37.4135 33.3241C37.6008 33.3241 37.7803 33.2498 37.9127 33.1174C38.0451 32.985 38.1195 32.8054 38.1195 32.6182V21.323C38.1195 21.2101 38.2983 10.1172 39.922 7.05342C40.0068 6.88841 40.0232 6.69666 39.9677 6.51963C39.9123 6.34261 39.7893 6.19454 39.6255 6.10745ZM28.7068 25.3234V23.2761C28.7068 22.9454 28.8382 22.6281 29.0721 22.3942C29.306 22.1604 29.6232 22.029 29.954 22.029H36.7076V25.3234H28.7068Z" fill="#FF7200"/>
</g>
<defs>
<clipPath id="clip0_304_299">
<rect width="40" height="40" fill="white"/>
</clipPath>
</defs>
</svg>
