<svg width="100" height="100" viewBox="0 0 100 100" fill="none" xmlns="http://www.w3.org/2000/svg">
<circle cx="50" cy="50" r="50" fill="white"/>
<circle cx="50" cy="50" r="50" fill="#E8E8E8"/>
<path d="M75 49.2921C74.6274 49.3666 74.2548 49.3666 73.9568 49.3666C69.1133 49.3666 65.2384 45.4918 65.2384 40.6483C65.2384 37.7422 66.6542 35.2086 68.7407 33.6438C68.07 32.8986 67.3249 32.1535 66.5797 31.4829C66.2817 31.1848 65.9091 30.9612 65.611 30.6632C65.3875 30.5141 65.1639 30.2906 64.9404 30.1416C64.8659 30.0671 64.7913 30.0671 64.7913 29.9925C64.4933 29.769 64.2697 29.62 63.9717 29.3964C63.6736 29.1729 63.3756 29.0238 63.0775 28.8003C62.7049 28.5767 62.3323 28.3532 61.9598 28.1296C61.6617 27.9806 61.4381 27.8316 61.1401 27.6825C60.842 27.5335 60.6185 27.459 60.3204 27.31C60.1714 27.2355 60.0969 27.2355 59.9478 27.161C59.6498 27.0119 59.3517 26.9374 59.0536 26.7884C58.6811 26.6393 58.383 26.5648 58.0104 26.4158C58.0104 26.4158 58.0104 26.4158 57.9359 26.4158C57.5633 26.2668 57.1908 26.1922 56.8182 26.0432C56.4456 25.9687 56.1475 25.8197 55.775 25.7452C55.7004 25.7452 55.6259 25.7452 55.5514 25.6706C55.2533 25.5961 54.8808 25.5216 54.5827 25.4471C54.2846 25.3726 53.9866 25.3726 53.763 25.2981C53.614 25.2981 53.465 25.2235 53.3905 25.2235C53.0179 25.149 52.7198 25.149 52.3472 25.0745C51.9747 25.0745 51.6021 25 51.155 25C50.7824 25 50.3353 25 49.9627 25C43.1073 25 36.848 27.8316 32.3025 32.3025C31.4829 33.1222 30.6632 34.0164 29.918 34.9851C29.6945 35.2832 29.4709 35.6557 29.2474 35.9538C29.1729 36.1028 29.0238 36.3264 28.9493 36.4754C28.6513 36.9225 28.4277 37.3696 28.1297 37.8167C27.3845 39.158 26.7884 40.5738 26.2668 42.0641C26.1177 42.3621 26.0432 42.7347 25.9687 43.1073C25.3726 45.2683 25 47.5783 25 49.9628C25 50.2608 25 50.5589 25 50.8569C25 51.155 25 51.4531 25.0745 51.6766C25.0745 52.1982 25.149 52.6453 25.2235 53.1669C25.2235 53.3905 25.2981 53.5395 25.2981 53.763C25.2981 53.9121 25.3726 54.0611 25.3726 54.2101C25.3726 54.4337 25.4471 54.6572 25.5216 54.8808C25.5961 55.2533 25.6706 55.6259 25.7452 55.9985C25.8197 56.222 25.8197 56.3711 25.8942 56.5946C26.0432 57.1163 26.1922 57.7124 26.4158 58.234C26.4903 58.4575 26.5648 58.7556 26.7139 58.9791C26.7884 59.2027 26.9374 59.5007 27.0119 59.7243C27.0864 59.9478 27.2355 60.2459 27.31 60.4694C27.459 60.693 27.5335 60.9165 27.6826 61.2146C27.9061 61.6617 28.1297 62.1088 28.3532 62.5559C28.3532 62.5559 28.3532 62.6304 28.4277 62.6304L25.2981 72.392C25.0745 73.0626 25.2235 73.8823 25.7452 74.3294C26.2668 74.851 27.0119 75 27.6826 74.7765L37.4441 71.6468L37.5186 71.7213C37.9657 71.9449 38.4128 72.1684 38.8599 72.392C39.0835 72.541 39.307 72.6155 39.6051 72.7645C39.8286 72.839 40.0522 72.9881 40.2757 73.0626C40.2757 73.0626 40.2757 73.0626 40.3502 73.0626C40.5738 73.1371 40.8718 73.2862 41.0954 73.3607C41.3189 73.4352 41.617 73.5842 41.8405 73.6587C41.9896 73.7332 42.2131 73.8078 42.3621 73.8078C42.7347 73.9568 43.1073 74.0313 43.4799 74.1058C43.6289 74.1803 43.8525 74.1803 44.0015 74.2548C44.7466 74.4039 45.4173 74.5529 46.1624 74.7019C46.386 74.7765 46.6095 74.7765 46.7586 74.7765C47.2802 74.851 47.7273 74.9255 48.2489 74.9255C48.5469 74.9255 48.845 75 49.0686 75C49.3666 75 49.6647 75 49.8882 75C63.6736 75 74.851 63.8227 74.851 50.0372V49.9628C75 49.8137 75 49.5156 75 49.2921ZM40.3502 53.3905C38.7854 53.3905 37.5186 52.1237 37.5186 50.5589C37.5186 48.994 38.7854 47.7273 40.3502 47.7273C41.9151 47.7273 43.1818 48.994 43.1818 50.5589C43.2563 52.1237 41.9151 53.3905 40.3502 53.3905ZM50.1118 53.3905C48.5469 53.3905 47.2802 52.1237 47.2802 50.5589C47.2802 48.994 48.5469 47.7273 50.1118 47.7273C51.6766 47.7273 52.9434 48.994 52.9434 50.5589C52.9434 52.1237 51.6766 53.3905 50.1118 53.3905ZM59.7988 53.3905C58.234 53.3905 56.9672 52.1237 56.9672 50.5589C56.9672 48.994 58.234 47.7273 59.7988 47.7273C61.3636 47.7273 62.6304 48.994 62.6304 50.5589C62.6304 52.1237 61.3636 53.3905 59.7988 53.3905Z" fill="white"/>
</svg>
