<svg width="194" height="45" viewBox="0 0 194 45" fill="none" xmlns="http://www.w3.org/2000/svg">
<path d="M74.8875 29.9547C74.8875 29.9211 74.8875 29.8876 74.8875 29.854C74.8541 29.7197 74.8207 29.5853 74.7204 29.4846L74.5867 29.3503L73.4835 28.0407L73.3163 27.8392C73.1826 27.7049 72.982 27.6377 72.7814 27.6041C72.748 27.6041 72.7146 27.6041 72.6811 27.6041C72.6477 27.6041 72.6143 27.6041 72.5808 27.6041C72.5474 27.6041 72.514 27.6041 72.4805 27.6041C72.3468 27.6377 72.2131 27.7049 72.0794 27.772C72.0794 27.772 72.0459 27.772 72.0459 27.8056C71.1099 28.5444 70.341 29.0481 69.6724 29.3839C68.8366 29.7868 67.8671 29.9883 66.8308 29.9883C64.9252 29.9883 63.3874 29.3167 62.2508 27.9064C61.0807 26.5296 60.5124 24.7163 60.5124 22.4328C60.5124 20.1494 61.0807 18.3361 62.2508 16.9929C63.4209 15.6497 64.9587 14.9446 66.8976 14.9446C67.8671 14.9446 68.8032 15.1125 69.6055 15.4818C70.2407 15.7505 70.9093 16.1534 71.6448 16.7579C71.6782 16.7914 71.7116 16.825 71.7451 16.825C71.8788 16.9258 72.0459 16.9929 72.2131 16.9929C72.2465 16.9929 72.28 16.9929 72.3134 16.9929H72.3468C72.4137 16.9929 72.514 16.9929 72.5808 16.9593C72.7146 16.9258 72.8148 16.8586 72.9151 16.7579C72.9151 16.7579 72.9486 16.7579 72.9486 16.7243L73.0154 16.6571L74.2858 15.1796C74.4195 15.0453 74.5198 14.8438 74.5198 14.6423C74.5198 14.6088 74.5198 14.5752 74.5198 14.5416C74.5198 14.508 74.5198 14.4744 74.5198 14.4409C74.5198 14.4073 74.5198 14.3737 74.5198 14.3401C74.4864 14.2058 74.4529 14.1051 74.3861 14.0043C74.3861 14.0043 74.3861 14.0043 74.3861 13.9708L74.2524 13.8364C74.2524 13.8364 74.2524 13.8364 74.2189 13.8364C73.1826 12.9969 72.1797 12.3925 71.1767 11.9895C69.9398 11.4858 68.5357 11.2508 66.9645 11.2508C63.6883 11.2172 61.0807 12.2582 59.1083 14.3737C57.1359 16.4892 56.1999 19.1756 56.2333 22.4328C56.1999 25.6901 57.1693 28.4101 59.1417 30.5592C61.1141 32.7083 63.7217 33.7828 66.8976 33.7492C68.5357 33.7492 69.9733 33.4806 71.277 32.9097C72.3468 32.4396 73.4166 31.7345 74.5198 30.7942L74.5532 30.7606C74.7204 30.5927 74.8207 30.3913 74.8541 30.1562C74.8541 30.1226 74.8541 30.089 74.8541 30.0555C74.8875 30.0219 74.8875 29.9883 74.8875 29.9547Z" fill="#191C1F"/>
<path d="M86.7216 17.7955C85.7855 17.3254 84.7826 17.0903 83.6794 17.0903C82.6096 17.0903 81.6067 17.3254 80.7041 17.7619V13.0607C80.7041 13.0271 80.7041 12.9936 80.7041 12.96C80.7041 12.9264 80.7041 12.8928 80.7041 12.8592C80.6372 12.4563 80.2695 12.1205 79.8683 12.0869C79.8349 12.0869 79.8015 12.0869 79.768 12.0869H77.7622C77.7288 12.0869 77.6953 12.0869 77.6619 12.0869C77.6285 12.0869 77.5951 12.0869 77.5616 12.0869C77.1605 12.1541 76.8262 12.5235 76.7927 12.9264C76.7927 12.96 76.7927 12.9936 76.7927 13.0271V32.5706C76.7927 32.6042 76.7927 32.6377 76.7927 32.6713C76.8262 33.1078 77.1939 33.4772 77.6619 33.5108C77.6953 33.5108 77.7288 33.5108 77.7622 33.5108H79.768H79.8015C79.8683 33.5108 79.9686 33.5108 80.0355 33.4772C80.4032 33.3765 80.6707 33.0407 80.7041 32.6713C80.7041 32.6377 80.7041 32.6042 80.7041 32.5706V30.1864V24.2092C80.7041 23.2354 81.005 22.4631 81.5733 21.8586C82.1416 21.2542 82.9105 20.952 83.8131 20.952C84.7492 20.952 85.4512 21.2206 85.9193 21.7579C86.4207 22.2952 86.6547 23.1011 86.6547 24.1085V30.1864V32.6713C86.6882 33.1078 87.0559 33.4772 87.5239 33.5108C87.5574 33.5108 87.5908 33.5108 87.6242 33.5108H89.6301H89.6635C89.7304 33.5108 89.7972 33.5108 89.8975 33.4772C90.2652 33.3765 90.5327 33.0407 90.5661 32.6713C90.5661 32.6377 90.5661 32.6042 90.5661 32.5706V24.0077C90.5661 21.2542 88.9949 18.9036 86.7216 17.7955Z" fill="#191C1F"/>
<path d="M120.82 32.2406L120.62 30.931C120.62 30.8974 120.62 30.8638 120.62 30.8303C120.553 30.4273 120.185 30.0915 119.784 30.0579C119.75 30.0579 119.717 30.0579 119.684 30.0579C119.65 30.0579 119.617 30.0579 119.583 30.0579C119.55 30.0579 119.516 30.0579 119.483 30.0579C119.149 30.1251 118.814 30.1251 118.514 30.1251C117.979 30.1251 117.577 30.0243 117.343 29.8229C117.109 29.6214 116.976 29.252 116.976 28.7147V20.7228H119.717C119.817 20.7228 119.884 20.7227 119.984 20.6892C120.352 20.5884 120.62 20.2526 120.653 19.8833V18.6408C120.653 18.6072 120.653 18.5736 120.653 18.5401C120.586 18.1371 120.218 17.8013 119.817 17.7677H117.009V13.9396C117.009 13.9061 117.009 13.8725 117.009 13.8389C117.009 13.8053 117.009 13.7717 117.009 13.7382C116.942 13.3352 116.575 12.9994 116.173 12.9658C116.14 12.9658 116.107 12.9658 116.073 12.9658H114.067C114.034 12.9658 114 12.9658 113.967 12.9658C113.934 12.9658 113.9 12.9658 113.867 12.9658C113.465 13.033 113.131 13.4024 113.098 13.8053C113.098 13.8389 113.098 13.8725 113.098 13.906V17.7341H111.226C111.192 17.7341 111.159 17.7341 111.125 17.7341C110.724 17.8013 110.39 18.1707 110.356 18.5736C110.356 18.6072 110.356 18.6408 110.356 18.6744V19.7825C110.356 19.8161 110.356 19.8497 110.356 19.8833C110.39 20.3198 110.758 20.6892 111.226 20.7228H113.098V29.1848C113.098 30.6624 113.432 31.7369 114.168 32.4757C114.87 33.1808 115.973 33.5502 117.477 33.5502C118.38 33.5502 119.282 33.4495 120.152 33.2144C120.519 33.1137 120.787 32.7779 120.82 32.4085C120.82 32.3749 120.82 32.3414 120.82 32.3078C120.82 32.3078 120.82 32.2742 120.82 32.2406Z" fill="#191C1F"/>
<path d="M194 12.4957C193.967 12.0592 193.599 11.6898 193.131 11.6562C193.098 11.6562 193.064 11.6562 193.031 11.6562H191.025C190.992 11.6562 190.958 11.6562 190.925 11.6562C190.49 11.6898 190.122 12.0592 190.056 12.4957V18.5401C188.685 17.5327 187.013 16.9283 185.208 16.9283C180.695 16.9283 177.018 20.622 177.018 25.1889C177.018 29.7557 180.695 33.4159 185.208 33.4159C187.013 33.4159 188.718 32.8115 190.056 31.8041V32.1399C190.056 32.1735 190.056 32.2071 190.056 32.2406C190.122 32.7108 190.524 33.0801 190.992 33.0801H192.997C193.499 33.0801 193.9 32.7108 193.933 32.2406C193.933 32.2071 193.933 32.1735 193.933 32.1399V12.5965C194 12.5629 194 12.5293 194 12.4957ZM190.089 25.2896C190.022 27.9424 187.883 30.058 185.241 30.058C182.567 30.058 180.394 27.8753 180.394 25.1889C180.394 22.5025 182.567 20.2862 185.241 20.2862C187.883 20.2862 190.022 22.4018 190.089 25.0546V25.2896Z" fill="#191C1F"/>
<path d="M166.856 16.9297C162.342 16.9297 158.665 20.6235 158.665 25.1567C158.665 29.69 162.342 33.3838 166.856 33.3838C171.402 33.3838 175.046 29.69 175.046 25.1567C175.046 20.6235 171.402 16.9297 166.856 16.9297ZM166.856 29.9586C164.181 29.9586 162.008 27.776 162.008 25.0896C162.008 22.4032 164.181 20.2205 166.856 20.2205C169.53 20.2205 171.703 22.4032 171.703 25.0896C171.703 27.776 169.53 29.9586 166.856 29.9586Z" fill="#191C1F"/>
<path d="M148.57 16.9297C144.057 16.9297 140.346 20.6235 140.346 25.1567C140.346 29.69 144.023 33.3838 148.57 33.3838C153.116 33.3838 156.76 29.69 156.76 25.1567C156.76 20.6235 153.083 16.9297 148.57 16.9297ZM148.57 29.9586C145.895 29.9586 143.722 27.776 143.722 25.0896C143.722 22.4032 145.895 20.2205 148.57 20.2205C151.244 20.2205 153.417 22.4032 153.417 25.0896C153.417 27.776 151.244 29.9586 148.57 29.9586Z" fill="#191C1F"/>
<path d="M138.707 12.9645C138.673 12.528 138.305 12.1586 137.871 12.125C137.837 12.125 137.804 12.125 137.771 12.125H125.134C124.331 12.125 123.696 12.763 123.696 13.5689V32.6422C123.696 32.6758 123.696 32.7094 123.696 32.743C123.763 33.2131 124.164 33.5825 124.632 33.5825H126.939C127.474 33.5825 127.875 33.1459 127.875 32.6422V25.3218C127.875 25.0532 128.076 24.8517 128.31 24.8517H137.069C137.57 24.8517 137.971 24.4824 138.005 24.0122V22.1653C137.971 21.7288 137.603 21.3594 137.169 21.3259H128.377C128.109 21.2923 127.909 21.0908 127.909 20.8557V16.2217C127.909 15.9531 128.109 15.7516 128.377 15.7516H137.771C138.272 15.7516 138.673 15.3822 138.707 14.9121C138.707 14.8785 138.707 14.845 138.707 14.8114V13.1324C138.707 13.0317 138.707 12.9981 138.707 12.9645Z" fill="#191C1F"/>
<path d="M107.549 29.4837C108.251 28.2748 108.652 26.8645 108.652 25.3534C108.652 20.7866 104.975 17.0928 100.428 17.0928C95.8817 17.0928 92.2043 20.7866 92.2043 25.3534C92.2043 29.9202 95.8817 33.614 100.428 33.614C101.933 33.614 103.337 33.2111 104.574 32.5059L107.783 33.5469C108.017 33.614 108.251 33.5469 108.418 33.379C108.585 33.2111 108.652 32.9424 108.585 32.741L107.549 29.4837ZM100.428 30.2225C97.7538 30.2225 95.5474 28.0398 95.5474 25.3198C95.5474 22.5999 97.7204 20.4508 100.428 20.4508C103.103 20.4508 105.276 22.6334 105.276 25.3198C105.276 28.0062 103.136 30.2225 100.428 30.2225Z" fill="#191C1F"/>
<path d="M0 13.5C0 6.04416 6.04222 0 13.4957 0H31.4899C38.9433 0 44.9856 6.04416 44.9856 13.5V31.5C44.9856 38.9558 38.9433 45 31.4899 45H13.4957C6.04222 45 0 38.9558 0 31.5V13.5Z" fill="#009FE3"/>
<path d="M37.4875 22.0792C37.264 22.1239 37.0405 22.1239 36.8617 22.1239C33.9565 22.1239 31.6324 19.799 31.6324 16.8929C31.6324 15.1492 32.4816 13.6291 33.7331 12.6902C33.3308 12.2431 32.8839 11.796 32.4369 11.3936C32.2581 11.2148 32.0347 11.0806 31.8559 10.9018C31.7218 10.8124 31.5877 10.6783 31.4536 10.5889C31.4089 10.5441 31.3642 10.5441 31.3642 10.4994C31.1854 10.3653 31.0514 10.2759 30.8726 10.1418C30.6938 10.0076 30.515 9.9182 30.3362 9.78407C30.1128 9.64995 29.8893 9.51582 29.6658 9.38169C29.487 9.29227 29.353 9.20285 29.1742 9.11343C28.9954 9.02401 28.8613 8.97931 28.6825 8.88989C28.5931 8.84518 28.5484 8.84519 28.459 8.80048C28.2803 8.71106 28.1015 8.66635 27.9227 8.57693C27.6992 8.48751 27.5205 8.4428 27.297 8.35338C27.297 8.35338 27.297 8.35338 27.2523 8.35338C27.0288 8.26396 26.8053 8.21925 26.5819 8.12984C26.3584 8.08513 26.1796 7.99571 25.9561 7.951C25.9114 7.951 25.8667 7.951 25.822 7.90629C25.6433 7.86158 25.4198 7.81686 25.241 7.77215C25.0622 7.72744 24.8834 7.72745 24.7494 7.68274C24.66 7.68274 24.5706 7.63803 24.5259 7.63803C24.3024 7.59332 24.1236 7.59331 23.9002 7.5486C23.6767 7.5486 23.4532 7.50391 23.185 7.50391C22.9616 7.50391 22.6934 7.50391 22.4699 7.50391C18.358 7.50391 14.6036 9.20286 11.8772 11.8854C11.3855 12.3772 10.8939 12.9137 10.4469 13.495C10.3129 13.6738 10.1788 13.8973 10.0447 14.0762C9.99999 14.1656 9.9106 14.2997 9.86591 14.3892C9.68713 14.6574 9.55304 14.9257 9.37426 15.1939C8.92731 15.9987 8.56975 16.8482 8.25688 17.7424C8.16749 17.9212 8.1228 18.1447 8.07811 18.3683C7.72055 19.6649 7.49707 21.0509 7.49707 22.4816C7.49707 22.6604 7.49707 22.8392 7.49707 23.0181C7.49707 23.1969 7.49707 23.3757 7.54177 23.5099C7.54177 23.8228 7.58646 24.0911 7.63116 24.4041C7.63116 24.5382 7.67585 24.6276 7.67585 24.7617C7.67585 24.8511 7.72055 24.9406 7.72055 25.03C7.72055 25.1641 7.76524 25.2982 7.80993 25.4324C7.85463 25.6559 7.89933 25.8795 7.94402 26.103C7.98872 26.2371 7.98871 26.3266 8.03341 26.4607C8.1228 26.7737 8.21219 27.1313 8.34627 27.4443C8.39097 27.5784 8.43567 27.7573 8.52506 27.8914C8.56975 28.0255 8.65914 28.2043 8.70384 28.3385C8.74853 28.4726 8.83792 28.6514 8.88262 28.7856C8.97201 28.9197 9.0167 29.0538 9.10609 29.2327C9.24018 29.5009 9.37426 29.7692 9.50835 30.0374C9.50835 30.0374 9.50835 30.0822 9.55305 30.0822L7.67585 35.9391C7.54176 36.3415 7.63116 36.8333 7.94402 37.1015C8.25689 37.4145 8.70384 37.5039 9.10609 37.3698L14.9611 35.492L15.0058 35.5367C15.274 35.6708 15.5422 35.8049 15.8104 35.9391C15.9444 36.0285 16.0785 36.0732 16.2573 36.1626C16.3914 36.2073 16.5255 36.2968 16.6596 36.3415C16.6596 36.3415 16.6596 36.3415 16.7043 36.3415C16.8383 36.3862 17.0171 36.4756 17.1512 36.5203C17.2853 36.565 17.4641 36.6544 17.5982 36.6991C17.6875 36.7438 17.8216 36.7886 17.911 36.7886C18.1345 36.878 18.358 36.9227 18.5814 36.9674C18.6708 37.0121 18.8049 37.0121 18.8943 37.0568C19.3413 37.1462 19.7435 37.2356 20.1905 37.3251C20.3245 37.3698 20.4586 37.3698 20.548 37.3698C20.8609 37.4145 21.1291 37.4592 21.4419 37.4592C21.6207 37.4592 21.7995 37.5039 21.9336 37.5039C22.1124 37.5039 22.2911 37.5039 22.4252 37.5039C30.6938 37.5039 37.3981 30.7975 37.3981 22.5263V22.4816C37.4874 22.3921 37.4875 22.2133 37.4875 22.0792ZM16.7043 24.5382C15.7657 24.5382 15.0058 23.7781 15.0058 22.8392C15.0058 21.9003 15.7657 21.1403 16.7043 21.1403C17.6428 21.1403 18.4027 21.9003 18.4027 22.8392C18.4474 23.7781 17.6428 24.5382 16.7043 24.5382ZM22.5593 24.5382C21.6207 24.5382 20.8609 23.7781 20.8609 22.8392C20.8609 21.9003 21.6207 21.1403 22.5593 21.1403C23.4979 21.1403 24.2577 21.9003 24.2577 22.8392C24.2577 23.7781 23.4979 24.5382 22.5593 24.5382ZM28.3697 24.5382C27.4311 24.5382 26.6712 23.7781 26.6712 22.8392C26.6712 21.9003 27.4311 21.1403 28.3697 21.1403C29.3083 21.1403 30.0681 21.9003 30.0681 22.8392C30.0681 23.7781 29.3083 24.5382 28.3697 24.5382Z" fill="#F5F4F1"/>
</svg>
