<svg width="279" height="563" viewBox="0 0 279 563" fill="none" xmlns="http://www.w3.org/2000/svg">
<rect width="279" height="563" fill="white"/>
<path fill-rule="evenodd" clip-rule="evenodd" d="M3.2069 90.0811H0V110.992H3.2069V90.0811ZM3.2069 130.295H0V171.314H3.2069V130.295ZM0 184.182H3.2069V225.201H0V184.182ZM279 145.577H275.793V209.92H279V145.577Z" fill="#191C1F"/>
<path d="M71.3533 12.0654H207.646V18.4995C207.646 25.6064 201.904 31.3677 194.819 31.3677H84.1809C77.0963 31.3677 71.3533 25.6064 71.3533 18.4995V12.0654Z" fill="#191C1F"/>
<path d="M152.328 17.6943H126.673C125.344 17.6943 124.267 18.7746 124.267 20.1071C124.267 21.4397 125.344 22.5199 126.673 22.5199H152.328C153.656 22.5199 154.733 21.4397 154.733 20.1071C154.733 18.7746 153.656 17.6943 152.328 17.6943Z" fill="white"/>
<path fill-rule="evenodd" clip-rule="evenodd" d="M43.2932 0C21.1543 0 3.20703 18.0045 3.20703 40.2143V522.786C3.20703 544.995 21.1543 563 43.2932 563H235.707C257.846 563 275.793 544.995 275.793 522.786V40.2143C275.793 18.0045 257.846 0 235.707 0H43.2932ZM44.095 12.0643C28.1549 12.0643 15.2329 25.0275 15.2329 41.0186V521.981C15.2329 537.972 28.1549 550.936 44.095 550.936H234.905C250.845 550.936 263.767 537.972 263.767 521.981V41.0186C263.767 25.0275 250.845 12.0643 234.905 12.0643H44.095Z" fill="#191C1F"/>
</svg>
