<svg width="13" height="13" viewBox="0 0 13 13" fill="none" xmlns="http://www.w3.org/2000/svg">
<g clip-path="url(#clip0_204_4776)">
<path d="M3.9898 0.900583C3.82427 0.896943 3.66171 0.944929 3.52474 1.03794C3.38776 1.13096 3.28317 1.26441 3.2255 1.41961C3.16783 1.57482 3.15996 1.74411 3.20297 1.904C3.24598 2.06389 3.33774 2.20634 3.46549 2.31167L8.3399 6.48751L3.46549 10.6619C3.37712 10.7268 3.30311 10.8093 3.2481 10.9042C3.19308 10.999 3.15825 11.1043 3.14579 11.2133C3.13332 11.3222 3.14349 11.4326 3.17565 11.5374C3.20781 11.6423 3.26127 11.7394 3.33269 11.8226C3.40411 11.9058 3.49195 11.9733 3.5907 12.0211C3.68945 12.0688 3.79698 12.0956 3.90657 12.0998C4.01617 12.104 4.12545 12.0856 4.22758 12.0457C4.32971 12.0057 4.42249 11.9451 4.50011 11.8676L10.0809 7.09272C10.1685 7.01793 10.2389 6.9251 10.2871 6.82048C10.3354 6.71586 10.3604 6.60199 10.3604 6.48678C10.3604 6.37156 10.3354 6.25769 10.2871 6.15307C10.2389 6.04845 10.1685 5.95553 10.0809 5.88074L4.50011 1.10125C4.35914 0.976027 4.17831 0.904836 3.9898 0.9004V0.900583Z" fill="#FF7200"/>
</g>
<defs>
<clipPath id="clip0_204_4776">
<rect width="11.2" height="11.2" fill="white" transform="translate(0.898438 0.900391)"/>
</clipPath>
</defs>
</svg>
