<svg width="13" height="13" viewBox="0 0 13 13" fill="none" xmlns="http://www.w3.org/2000/svg">
<g clip-path="url(#clip0_204_4771)">
<path d="M9.0102 0.900583C9.17573 0.896943 9.33829 0.944929 9.47526 1.03794C9.61224 1.13096 9.71683 1.26441 9.7745 1.41961C9.83217 1.57482 9.84004 1.74411 9.79703 1.904C9.75402 2.06389 9.66226 2.20634 9.53451 2.31167L4.6601 6.48751L9.53451 10.6619C9.62288 10.7268 9.69689 10.8093 9.7519 10.9042C9.80692 10.999 9.84175 11.1043 9.85421 11.2133C9.86668 11.3222 9.85651 11.4326 9.82435 11.5374C9.79219 11.6423 9.73873 11.7394 9.66731 11.8226C9.59589 11.9058 9.50805 11.9733 9.4093 12.0211C9.31055 12.0688 9.20302 12.0956 9.09343 12.0998C8.98383 12.104 8.87455 12.0856 8.77242 12.0457C8.67029 12.0057 8.57751 11.9451 8.49989 11.8676L2.91913 7.09272C2.83149 7.01793 2.76111 6.9251 2.71286 6.82048C2.6646 6.71586 2.63961 6.60199 2.63961 6.48678C2.63961 6.37156 2.6646 6.25769 2.71286 6.15307C2.76111 6.04845 2.83149 5.95553 2.91913 5.88074L8.49989 1.10125C8.64086 0.976027 8.82169 0.904836 9.0102 0.9004V0.900583Z" fill="#FF7200"/>
</g>
<defs>
<clipPath id="clip0_204_4771">
<rect width="11.2" height="11.2" fill="white" transform="matrix(-1 0 0 1 12.1016 0.900391)"/>
</clipPath>
</defs>
</svg>
