<?xml version="1.0" encoding="utf-8"?><svg xmlns="http://www.w3.org/2000/svg" xmlns:xlink="http://www.w3.org/1999/xlink"><symbol viewBox="0 0 22 24" id="basket" xmlns="http://www.w3.org/2000/svg"><g clip-path="url(#aa)"><path d="M10.363 18.443a2.046 2.046 0 00-2.045 2.042 2.046 2.046 0 004.09 0 2.046 2.046 0 00-2.045-2.042zm6.134 0a2.046 2.046 0 00-2.045 2.042 2.046 2.046 0 004.089 0 2.046 2.046 0 00-2.044-2.042zm3.978-8.199L7.413 6.891a.614.614 0 00-.75.73L8.67 16.4h-.786L5.482 5.895a.613.613 0 00-.474-.464l-4.27-.882A.614.614 0 00.489 5.75l3.885.802L6.797 17.15a.613.613 0 00.598.477h12.07a.615.615 0 00.607-.53l.858-6.175a.613.613 0 00-.455-.678zm-8.14 3.91a.613.613 0 01-1.227 0v-2.696a.613.613 0 011.227 0v2.696zm2.625 0a.613.613 0 01-1.227 0v-1.88a.613.613 0 011.227 0v1.88zm2.625 0a.613.613 0 01-1.227 0v-1.226a.613.613 0 011.227 0v1.226z"/></g><path fill-rule="evenodd" clip-rule="evenodd" d="M16.268 4.568a2.996 2.996 0 00-1.693-.523c-.627 0-1.21.193-1.693.523-.28-.843-.492-1.752-.492-2.383C12.39.98 13.37 0 14.575 0s2.185.98 2.185 2.185c0 .631-.212 1.54-.492 2.383zm-4.722 2.274l.024.006v-.011l-.024.005zm4.972 1.217c-1.333-.33-2.766-.681-4.129-1.013a2.185 2.185 0 114.129 1.013zm4.436 1.103c-.866-.217-2.155-.538-3.618-.9a2.995 2.995 0 00.243-1.425c.87.18 1.762.45 2.308.765.596.344.969.928 1.067 1.56zM9.869 6.439c-.36-.086-.706-.167-1.03-.243a2.19 2.19 0 01-.376-2.667 2.188 2.188 0 013.147-.7c.098.738.338 1.599.61 2.353a3.01 3.01 0 00-.449.774c-.628.113-1.305.278-1.902.483zm10.124.075a3.43 3.43 0 01-.217.114c-.696-.295-1.587-.526-2.397-.672a3.01 3.01 0 00-.449-.774c.262-.727.494-1.553.599-2.273.095-.067.189-.128.278-.18a2.188 2.188 0 012.986.8 2.188 2.188 0 01-.8 2.985z"/><defs><clipPath id="aa"><path transform="translate(0 3.064)" d="M0 0h20.936v20.936H0z"/></clipPath></defs></symbol><symbol viewBox="0 0 344.96 344.96" id="check" xmlns="http://www.w3.org/2000/svg"><g data-name="Слой 2"><path class="bcls-1" d="M321.85 86.24l-40-23.11-23.1-40H212.5L172.48 0l-40 23.11H86.24l-23.11 40-40 23.1v46.21L0 172.48l23.11 40v46.21l40 23.11 23.11 40h46.21l40 23.1 40-23.11h46.21l23.11-40 40-23.11V212.5l23.11-40-23.11-40V86.24zM156.91 243.07a16.79 16.79 0 01-23.34 0l-50.45-50.44a16.19 16.19 0 010-22.89l13.35-13.35a16.19 16.19 0 0122.89 0l25.87 25.87 80.34-80.35a16.19 16.19 0 0122.89 0l13.35 13.35a16.19 16.19 0 010 22.89z" data-name="Capa 1"/></g></symbol><symbol viewBox="0 0 20 20" id="chevron-down" xmlns="http://www.w3.org/2000/svg"><path d="M3.625 4.708L10 11.069l6.375-6.361 1.958 1.958L10 15 1.667 6.666l1.958-1.958z"/></symbol><symbol viewBox="0 0 16 16" id="chevron-left" xmlns="http://www.w3.org/2000/svg"><g clip-path="url(#da)"><path d="M11.587 0a1.138 1.138 0 01.749 2.016L5.372 7.982l6.964 5.963a1.138 1.138 0 11-1.478 1.723L2.885 8.846a1.138 1.138 0 010-1.731L10.858.287c.201-.179.46-.28.729-.287z"/></g><defs><clipPath id="da"><path transform="matrix(-1 0 0 1 16 0)" d="M0 0h16v16H0z"/></clipPath></defs></symbol><symbol viewBox="0 0 16 16" id="chevron-right" xmlns="http://www.w3.org/2000/svg"><g clip-path="url(#ea)"><path d="M4.414 0a1.138 1.138 0 00-.75 2.016l6.964 5.966-6.963 5.963a1.138 1.138 0 101.478 1.723l7.972-6.822a1.137 1.137 0 000-1.731L5.143.287A1.138 1.138 0 004.413 0z"/></g><defs><clipPath id="ea"><path d="M0 0h16v16H0z"/></clipPath></defs></symbol><symbol viewBox="0 0 16 16" id="chevron-up" xmlns="http://www.w3.org/2000/svg"><g clip-path="url(#fa)"><path d="M16 11.586a1.138 1.138 0 01-2.016.749L8.018 5.37l-5.963 6.964a1.137 1.137 0 11-1.722-1.478l6.82-7.973a1.138 1.138 0 011.732 0l6.828 7.973c.179.201.28.46.287.729z"/></g><defs><clipPath id="fa"><path transform="matrix(0 -1 -1 0 16 16)" d="M0 0h16v16H0z"/></clipPath></defs></symbol><symbol viewBox="0 0 12 12" id="close" xmlns="http://www.w3.org/2000/svg"><path d="M12 1.2L10.8 0 6 4.8 1.2 0 0 1.2 4.8 6 0 10.8 1.2 12 6 7.2l4.8 4.8 1.2-1.2L7.2 6 12 1.2z"/></symbol><symbol viewBox="0 0 16 16" id="facebook" xmlns="http://www.w3.org/2000/svg"><g clip-path="url(#ha)"><path d="M6.869 1.273C7.47.716 8.322.526 9.129.505 9.981.497 10.833.5 11.684.5c.004.877.004 1.75 0 2.628h-1.65c-.348-.022-.707.236-.77.575-.008.586-.004 1.172-.004 1.758.807.003 1.614 0 2.42.003-.06.848-.167 1.693-.294 2.53-.714.007-1.428 0-2.141.004-.008 2.5.004 4.997-.004 7.497-1.061.004-2.118-.003-3.18.004-.018-2.5 0-5-.01-7.501-.516-.004-1.036.003-1.551-.004.004-.84 0-1.681 0-2.519.515-.007 1.035 0 1.55-.003.015-.816-.015-1.635.015-2.45.057-.651.307-1.303.804-1.75z"/></g><defs><clipPath id="ha"><path transform="translate(.5 .5)" d="M0 0h15v15H0z"/></clipPath></defs></symbol><symbol viewBox="0 0 24 24" id="fb" xmlns="http://www.w3.org/2000/svg"><path d="M13.397 20.997v-8.196h2.765l.411-3.209h-3.176V7.548c0-.926.258-1.56 1.587-1.56h1.684v-2.86A22.108 22.108 0 0014.201 3c-2.444 0-4.122 1.492-4.122 4.231v2.355H7.332v3.21h2.753v8.201h3.312z"/></symbol><symbol viewBox="0 0 16 16" id="instagram" xmlns="http://www.w3.org/2000/svg"><g clip-path="url(#ja)"><path d="M8.012 4.113c-2.159 0-3.915 1.73-3.915 3.859 0 2.127 1.756 3.858 3.915 3.858s3.915-1.73 3.915-3.858-1.756-3.86-3.915-3.86zm0 6.297c-1.373 0-2.49-1.094-2.49-2.438 0-1.345 1.117-2.438 2.49-2.438 1.373 0 2.49 1.093 2.49 2.438 0 1.344-1.117 2.438-2.49 2.438z"/><path d="M11.182.5H4.818C2.437.5.5 2.43.5 4.8v6.4c0 2.37 1.937 4.3 4.318 4.3h6.364c2.381 0 4.318-1.93 4.318-4.3V4.8c0-2.37-1.937-4.3-4.318-4.3zm2.89 10.7a2.886 2.886 0 01-2.89 2.877H4.818a2.886 2.886 0 01-2.89-2.878V4.801a2.886 2.886 0 012.89-2.878h6.364a2.886 2.886 0 012.89 2.878v6.398z"/><path d="M11.997 4.873a.92.92 0 00.922-.917.92.92 0 00-.922-.918.92.92 0 00-.92.918.92.92 0 00.92.917z"/></g><defs><clipPath id="ja"><path transform="translate(.5 .5)" d="M0 0h15v15H0z"/></clipPath></defs></symbol><symbol viewBox="0 0 30 30" id="logout" xmlns="http://www.w3.org/2000/svg"><g clip-path="url(#ka)"><path d="M15.292 19.754a1.552 1.552 0 002.195 2.194l5.852-5.852a1.552 1.552 0 000-2.194L17.487 8.05a1.552 1.552 0 00-2.195 2.195l3.203 3.203H1.552a1.552 1.552 0 000 3.103h16.943l-3.203 3.203z"/><path d="M27.416 0H12.933a2.586 2.586 0 00-2.586 2.586v2.07a1.552 1.552 0 003.103 0V3.102h13.448v23.794H13.45v-1.552a1.552 1.552 0 00-3.103 0v2.069A2.586 2.586 0 0012.933 30h14.483a2.586 2.586 0 002.586-2.586V2.586A2.586 2.586 0 0027.416 0z"/></g><defs><clipPath id="ka"><path d="M0 0h30v30H0z"/></clipPath></defs></symbol><symbol viewBox="0 0 20 20" id="telegram" xmlns="http://www.w3.org/2000/svg"><path d="M18.295 1.814s1.85-.722 1.696 1.03c-.052.722-.514 3.247-.874 5.978l-1.233 8.09s-.103 1.186-1.028 1.392c-.925.206-2.313-.722-2.57-.928-.205-.155-3.854-2.473-5.139-3.607-.36-.31-.77-.928.051-1.649l5.397-5.153c.616-.618 1.233-2.061-1.337-.31l-7.195 4.896s-.822.515-2.364.052L.36 10.574s-1.234-.773.873-1.546c5.14-2.422 11.461-4.895 17.063-7.214z"/></symbol><symbol viewBox="0 0 16 16" id="telegram2" xmlns="http://www.w3.org/2000/svg"><g clip-path="url(#ma)"><path d="M15.024 1.524L.719 6.934c-.289.111-.293.555-.011.682l3.664 1.491 1.364 4.27a.35.35 0 00.557.149l2.096-1.935 3.985 2.622a.35.35 0 00.527-.225l2.59-12.072a.348.348 0 00-.467-.392zM6.409 9.916l-.232 2.195L5.07 8.732l7.802-5.083L6.41 9.916z"/></g><defs><clipPath id="ma"><path transform="translate(.5 .5)" d="M0 0h15v15H0z"/></clipPath></defs></symbol><symbol viewBox="0 0 16 16" id="twitter" xmlns="http://www.w3.org/2000/svg"><g clip-path="url(#na)"><path d="M15.5 3.432c-.545.272-1.159.409-1.773.477.614-.41 1.091-.955 1.364-1.704-.614.34-1.227.613-1.977.75C12.568 2.34 11.75 2 10.864 2a3.055 3.055 0 00-3.068 3.067c0 .273 0 .477.068.682C5.34 5.613 3.09 4.386 1.523 2.545c-.273.477-.41.954-.41 1.568 0 1.09.546 1.977 1.364 2.522a2.46 2.46 0 01-1.363-.409v.068c0 1.5 1.023 2.727 2.454 3-.272.068-.545.136-.818.136-.204 0-.409 0-.545-.068.409 1.227 1.5 2.113 2.863 2.113-1.023.818-2.386 1.295-3.818 1.295-.273 0-.477 0-.75-.068 1.364.886 2.932 1.363 4.705 1.363 5.659 0 8.727-4.635 8.727-8.725v-.409c.682-.34 1.16-.886 1.568-1.5z"/></g><defs><clipPath id="na"><path transform="translate(.5 .5)" d="M0 0h15v15H0z"/></clipPath></defs></symbol><symbol viewBox="0 0 16 16" id="viber" xmlns="http://www.w3.org/2000/svg"><path d="M8 1.335c-1.071.013-3.374.19-4.662 1.37-.958.948-1.292 2.35-1.331 4.084-.033 1.728-.072 4.973 3.058 5.856v1.346s-.02.538.337.648c.438.14.688-.275 1.105-.72l.778-.879c2.142.178 3.782-.232 3.97-.293.435-.139 2.883-.451 3.283-3.696.41-3.351-.2-5.463-1.301-6.418h-.007c-.332-.306-1.668-1.279-4.652-1.29 0 0-.222-.014-.578-.008zm.037.942a7.02 7.02 0 01.488.011c2.527.007 3.732.767 4.017 1.023.927.794 1.405 2.697 1.055 5.495-.332 2.713-2.317 2.885-2.685 3.002-.156.05-1.6.406-3.42.289 0 0-1.356 1.634-1.78 2.055-.067.074-.146.095-.196.085-.071-.018-.093-.107-.089-.229l.013-2.233c-2.655-.733-2.498-3.5-2.47-4.946.033-1.446.304-2.628 1.113-3.43 1.088-.982 3.043-1.115 3.953-1.122zm.2 1.446a.166.166 0 100 .332 3.136 3.136 0 012.242.883c.606.588.9 1.378.912 2.411 0 .092.074.167.167.167V7.51a.167.167 0 00.168-.165 3.588 3.588 0 00-1.009-2.646c-.66-.645-1.496-.977-2.48-.977zm-2.198.382a.523.523 0 00-.342.067H5.69a2.61 2.61 0 00-.637.523 1.003 1.003 0 00-.256.525.71.71 0 00.026.302l.01.006c.172.504.396.988.67 1.444a8.48 8.48 0 001.29 1.762l.015.022.024.017.015.018.017.015c.532.505 1.127.94 1.769 1.295.734.4 1.18.588 1.447.667v.004c.078.024.15.034.221.034.228-.016.444-.109.613-.262a2.53 2.53 0 00.517-.638v-.004c.128-.241.085-.469-.1-.623-.37-.323-.77-.61-1.195-.857-.285-.155-.574-.061-.69.095l-.25.315c-.129.156-.361.134-.361.134l-.007.004C7.093 8.527 6.63 6.772 6.63 6.772s-.022-.239.139-.36l.312-.252c.15-.122.254-.41.094-.695a7.498 7.498 0 00-.856-1.194.475.475 0 00-.28-.167zm2.486.495c-.221 0-.221.334.003.334A2.098 2.098 0 0110 5.572 1.94 1.94 0 0110.5 7a.168.168 0 00.167.165l.007.009a.169.169 0 00.167-.167c.015-.662-.191-1.218-.595-1.663C9.84 4.9 9.273 4.65 8.549 4.6h-.024zm.274.898c-.228-.006-.236.335-.01.341.55.029.816.306.851.877a.166.166 0 00.165.163h.007a.168.168 0 00.16-.178c-.039-.744-.445-1.164-1.166-1.202H8.8z"/></symbol><symbol viewBox="0 0 16 16" id="vk" xmlns="http://www.w3.org/2000/svg"><g clip-path="url(#pa)"><path d="M15.421 11.652a1.064 1.064 0 00-.05-.1c-.261-.48-.758-1.067-1.492-1.765l-.016-.016-.008-.008-.008-.008h-.008a9.057 9.057 0 01-.632-.655c-.161-.212-.198-.428-.11-.646.063-.165.298-.514.704-1.046.213-.282.382-.508.507-.68.901-1.223 1.291-2.006 1.172-2.346l-.047-.08c-.032-.048-.112-.092-.242-.132a1.206 1.206 0 00-.5-.02l-2.25.016a.627.627 0 00-.257.028 2.06 2.06 0 01-.04.02l-.03.024a.347.347 0 00-.086.084.536.536 0 00-.079.14 13.17 13.17 0 01-.835 1.796c-.193.33-.37.617-.531.859-.161.242-.297.42-.406.535-.11.114-.209.206-.297.275-.088.07-.156.098-.203.088a3.581 3.581 0 01-.133-.032.524.524 0 01-.175-.196.894.894 0 01-.09-.311 3.387 3.387 0 01-.027-.324 6.622 6.622 0 01.003-.383c.006-.165.008-.276.008-.335 0-.202.004-.422.012-.659.008-.237.014-.424.02-.563.005-.138.007-.284.007-.439 0-.154-.009-.275-.027-.363a1.29 1.29 0 00-.082-.256.425.425 0 00-.16-.191.888.888 0 00-.262-.108 5.097 5.097 0 00-1.054-.104c-.969-.01-1.591.054-1.867.192a1.05 1.05 0 00-.297.24c-.093.117-.106.181-.039.191.313.048.534.163.664.344l.047.095c.036.07.073.192.11.368.036.175.06.37.07.582.026.389.026.722 0 .999a12 12 0 01-.074.646 1.319 1.319 0 01-.2.551.137.137 0 01-.039.04.576.576 0 01-.21.04c-.074 0-.162-.037-.266-.112a1.87 1.87 0 01-.324-.307 4.095 4.095 0 01-.38-.547 9.522 9.522 0 01-.437-.83L4.35 6.01a19.972 19.972 0 01-.32-.651 12.63 12.63 0 01-.36-.827.529.529 0 00-.186-.255l-.04-.024a.825.825 0 00-.305-.12L1 4.15c-.218 0-.366.05-.444.152l-.031.048a.263.263 0 00-.024.128c0 .058.016.13.047.215.313.75.652 1.475 1.02 2.172.366.697.685 1.259.956 1.685.27.426.547.827.828 1.205.281.378.467.62.558.727.091.107.163.186.215.24l.195.191c.125.128.309.281.55.46.243.178.51.353.805.526.294.173.637.314 1.027.423.39.11.77.154 1.14.132h.898c.183-.016.32-.074.414-.176l.031-.04a.546.546 0 00.06-.147.838.838 0 00.026-.22 2.675 2.675 0 01.051-.619c.04-.183.083-.322.133-.415a1.013 1.013 0 01.3-.351.606.606 0 01.063-.028c.125-.043.272-.001.442.123.169.126.328.28.476.464.148.183.327.39.535.619.208.229.39.399.547.51l.156.097c.104.063.24.122.406.175a.86.86 0 00.437.04l2-.032c.198 0 .351-.033.46-.1.11-.066.175-.14.196-.22a.63.63 0 00.004-.27 1.012 1.012 0 00-.055-.212z"/></g><defs><clipPath id="pa"><path transform="translate(.5 .5)" d="M0 0h15v15H0z"/></clipPath></defs></symbol><symbol viewBox="0 0 16 16" id="whatsapp" xmlns="http://www.w3.org/2000/svg"><path fill-rule="evenodd" clip-rule="evenodd" d="M12.269 3.755A5.947 5.947 0 008.035 2 5.994 5.994 0 002.05 7.985a5.98 5.98 0 00.799 2.992L2 14.077l3.173-.832c.877.477 1.86.728 2.86.728h.002a5.993 5.993 0 005.533-8.276 5.953 5.953 0 00-1.3-1.942zm-4.234 9.208h-.002c-.89 0-1.765-.24-2.532-.694l-.181-.108-1.883.494.502-1.835-.118-.188a4.965 4.965 0 01-.76-2.647 4.982 4.982 0 016.88-4.597c.604.25 1.152.618 1.613 1.081a4.946 4.946 0 011.455 3.52 4.982 4.982 0 01-4.974 4.974zm2.729-3.726c-.15-.075-.885-.436-1.022-.486-.137-.05-.236-.075-.336.074-.1.15-.387.486-.474.586-.087.1-.175.112-.324.038-.15-.075-.631-.233-1.203-.742a4.505 4.505 0 01-.832-1.036c-.087-.15-.009-.231.066-.306.068-.066.15-.174.224-.262.075-.087.1-.149.15-.249.05-.1.025-.187-.013-.262-.037-.075-.337-.811-.461-1.11-.121-.29-.244-.252-.336-.256a6.418 6.418 0 00-.286-.005.55.55 0 00-.4.186c-.137.15-.523.512-.523 1.248s.536 1.447.61 1.547c.075.1 1.055 1.61 2.555 2.258.358.154.636.246.853.315.358.114.684.098.942.06.287-.043.885-.362 1.01-.711.124-.35.124-.649.087-.711-.038-.063-.138-.101-.287-.176z"/></symbol></svg>