<svg width="20" height="20" viewBox="0 0 20 20" fill="none" xmlns="http://www.w3.org/2000/svg">
<path fill-rule="evenodd" clip-rule="evenodd" d="M9.85381 0C15.2735 0 19.6651 4.47612 19.6651 10C19.6651 15.5239 15.2735 20 9.85381 20C4.43411 20 0.0424805 15.5239 0.0424805 10C0.0424805 4.47612 4.43411 0 9.85381 0Z" fill="#2FA6D9"/>
<path fill-rule="evenodd" clip-rule="evenodd" d="M4.00234 9.96426L6.64664 10.8102L11.8741 7.44126C12.6633 6.93368 12.9429 6.9723 12.1275 7.7173L8.04162 11.4751L9.52683 12.6149L11.9644 14.4849C12.3372 14.7283 12.7274 14.565 12.8468 14.1346C13.3448 11.6888 13.8311 9.24299 14.3378 6.80015C14.6902 5.10822 14.2301 5.37538 12.8439 5.91857L9.03177 7.41457L4.15668 9.32907C3.81011 9.44188 3.76353 9.89895 4.00234 9.96426Z" fill="#EFF7FC"/>
<path fill-rule="evenodd" clip-rule="evenodd" d="M6.64624 10.8108L7.55484 13.7969C7.60145 13.972 7.68881 14.0492 7.76454 14.0344C7.82862 14.0225 7.88103 13.9423 7.88103 13.7999C7.93926 13.0281 7.98005 12.2475 8.03828 11.4757L12.1271 7.72092C12.9396 6.97588 12.66 6.93435 11.8737 7.44488L6.64624 10.8108Z" fill="#C8DAEA"/>
<path fill-rule="evenodd" clip-rule="evenodd" d="M8.04013 11.4755C7.98187 12.2472 7.94111 13.0278 7.88285 13.7996C7.88285 13.9421 7.83043 14.0222 7.76636 14.0341C8.03138 14.0341 8.11873 13.9985 8.2993 13.8204L9.52538 12.6123L8.04013 11.4755Z" fill="#A9C9DD"/>
</svg>
