<svg width="20" height="20" viewBox="0 0 20 20" fill="none" xmlns="http://www.w3.org/2000/svg">
<path d="M9.96 0C4.46 0.02 0 4.5 0 10C0 11.75 0.46 13.48 1.33 14.99L1.54 15.36L0.47 19.03L3.98 18L4.37 18.27C6.03 19.4 7.98 20 10 20C15.51 20 20 15.51 20 10C20 4.5 15.54 0.02 10.04 0H9.96Z" fill="#00C958"/>
<path d="M7.441 12.56C7.441 12.56 9.971 15.28 12.621 15.75C14.651 16.11 15.541 14.38 15.771 13.52C15.851 13.22 15.771 12.91 15.551 12.7C15.341 12.49 13.471 11.65 13.021 11.62C12.711 11.6 12.461 11.73 12.241 12.02L11.791 12.59C11.611 12.82 11.371 12.88 11.151 12.76C10.701 12.51 9.921 11.99 8.971 11.04C8.021 10.09 7.491 9.31004 7.241 8.86004C7.111 8.64004 7.181 8.40004 7.411 8.22004L7.981 7.77004C8.271 7.54004 8.401 7.30004 8.381 6.99004C8.351 6.53004 7.511 4.67004 7.301 4.46004C7.091 4.24004 6.781 4.16004 6.481 4.24004C5.631 4.47004 3.891 5.36004 4.251 7.39004C4.721 10.03 7.441 12.56 7.441 12.56Z" fill="white"/>
</svg>
