<svg width="16" height="16" viewBox="0 0 16 16" fill="none" xmlns="http://www.w3.org/2000/svg">
<g clip-path="url(#clip0_304_832)">
<path d="M4.41355 0.000290768C4.17707 -0.00491037 3.94485 0.0636408 3.74917 0.196519C3.55349 0.329398 3.40407 0.520036 3.32169 0.74176C3.23931 0.963483 3.22806 1.20533 3.2895 1.43374C3.35094 1.66216 3.48203 1.86566 3.66453 2.01613L10.628 7.98162L3.66453 13.945C3.53828 14.0378 3.43256 14.1556 3.35397 14.2911C3.27538 14.4267 3.22562 14.577 3.20782 14.7327C3.19001 14.8883 3.20453 15.046 3.25047 15.1957C3.29642 15.3455 3.3728 15.4843 3.47482 15.6032C3.57685 15.7221 3.70233 15.8185 3.8434 15.8867C3.98447 15.9548 4.13809 15.9931 4.29465 15.9992C4.45121 16.0052 4.60733 15.9789 4.75323 15.9219C4.89914 15.8648 5.03168 15.7782 5.14257 15.6675L13.1151 8.8462C13.2403 8.73936 13.3408 8.60675 13.4097 8.45729C13.4787 8.30783 13.5144 8.14516 13.5144 7.98057C13.5144 7.81597 13.4787 7.6533 13.4097 7.50384C13.3408 7.35438 13.2403 7.22164 13.1151 7.1148L5.14257 0.286955C4.94117 0.108068 4.68285 0.00636597 4.41355 2.82548e-05V0.000290768Z" fill="#FF7200"/>
</g>
<defs>
<clipPath id="clip0_304_832">
<rect width="16" height="16" fill="white"/>
</clipPath>
</defs>
</svg>
