<svg width="16" height="16" viewBox="0 0 16 16" fill="none" xmlns="http://www.w3.org/2000/svg">
<g clip-path="url(#clip0_304_973)">
<path d="M15.9997 11.5856C16.0049 11.8221 15.9364 12.0543 15.8035 12.25C15.6706 12.4457 15.48 12.5951 15.2583 12.6775C15.0365 12.7598 14.7947 12.7711 14.5663 12.7096C14.3379 12.6482 14.1344 12.5171 13.9839 12.3346L8.0184 5.37117L2.05501 12.3346C1.96223 12.4609 1.84443 12.5666 1.70889 12.6452C1.57335 12.7238 1.423 12.7735 1.26734 12.7913C1.11168 12.8091 0.954057 12.7946 0.80427 12.7487C0.654483 12.7027 0.515752 12.6263 0.39685 12.5243C0.277947 12.4223 0.181498 12.2968 0.113335 12.1557C0.0451727 12.0147 0.00688843 11.8611 0.000847864 11.7045C-0.00519175 11.5479 0.0210686 11.3918 0.0781584 11.2459C0.135248 11.1 0.221847 10.9675 0.332534 10.8566L7.15381 2.88407C7.26065 2.75887 7.39327 2.65833 7.54273 2.58939C7.69218 2.52046 7.85486 2.48476 8.01945 2.48476C8.18404 2.48476 8.34672 2.52046 8.49617 2.58939C8.64563 2.65833 8.77838 2.75887 8.88522 2.88407L15.7131 10.8566C15.8919 11.058 15.9936 11.3163 16 11.5856L15.9997 11.5856Z" fill="#FF7200"/>
</g>
<defs>
<clipPath id="clip0_304_973">
<rect width="16" height="16" fill="white" transform="matrix(4.37114e-08 -1 -1 -4.37114e-08 16 15.999)"/>
</clipPath>
</defs>
</svg>
