<svg width="16" height="16" viewBox="0 0 16 16" fill="none" xmlns="http://www.w3.org/2000/svg">
<g clip-path="url(#clip0_304_837)">
<path d="M11.5867 0.000290768C11.8232 -0.00491037 12.0554 0.0636408 12.2511 0.196519C12.4468 0.329398 12.5962 0.520036 12.6786 0.74176C12.7609 0.963483 12.7722 1.20533 12.7107 1.43374C12.6493 1.66216 12.5182 1.86566 12.3357 2.01613L5.37227 7.98162L12.3357 13.945C12.462 14.0378 12.5677 14.1556 12.6463 14.2911C12.7249 14.4267 12.7746 14.577 12.7924 14.7327C12.8102 14.8883 12.7957 15.046 12.7498 15.1957C12.7038 15.3455 12.6274 15.4843 12.5254 15.6032C12.4234 15.7221 12.2979 15.8185 12.1568 15.8867C12.0158 15.9548 11.8621 15.9931 11.7056 15.9992C11.549 16.0052 11.3929 15.9789 11.247 15.9219C11.1011 15.8648 10.9686 15.7782 10.8577 15.6675L2.88516 8.8462C2.75997 8.73936 2.65943 8.60675 2.59049 8.45729C2.52156 8.30783 2.48586 8.14516 2.48586 7.98057C2.48586 7.81597 2.52156 7.6533 2.59049 7.50384C2.65943 7.35438 2.75997 7.22164 2.88516 7.1148L10.8577 0.286955C11.0591 0.108068 11.3174 0.00636597 11.5867 2.82548e-05V0.000290768Z" fill="#FF7200"/>
</g>
<defs>
<clipPath id="clip0_304_837">
<rect width="16" height="16" fill="white" transform="matrix(-1 0 0 1 16 0)"/>
</clipPath>
</defs>
</svg>
