<svg width="16" height="16" viewBox="0 0 16 16" fill="none" xmlns="http://www.w3.org/2000/svg">
<g clip-path="url(#clip0_304_968)">
<path d="M6.86864 1.27258C7.47023 0.715747 8.32189 0.526483 9.12901 0.504566C9.9809 0.49726 10.8328 0.500913 11.6844 0.500913C11.6882 1.37806 11.6882 2.25154 11.6844 3.12869C11.1353 3.12869 10.5823 3.12869 10.0332 3.12869C9.68561 3.10677 9.32704 3.36521 9.26353 3.70378C9.25603 4.28984 9.25978 4.87567 9.25978 5.46172C10.0667 5.46537 10.8738 5.46172 11.6807 5.46537C11.6209 6.31329 11.5127 7.15779 11.3856 7.99498C10.672 8.00228 9.9584 7.99498 9.24478 7.99863C9.23728 10.499 9.24853 12.9957 9.24103 15.4963C8.17987 15.5 7.12268 15.4927 6.06151 15.5C6.04276 12.9996 6.06151 10.4992 6.05026 7.99863C5.53468 7.99498 5.01534 8.00228 4.49976 7.99498C4.50351 7.15413 4.49976 6.31352 4.49976 5.47633C5.01534 5.46903 5.53468 5.47633 6.05026 5.47268C6.06526 4.65741 6.03526 3.83848 6.06526 3.02321C6.12151 2.37186 6.3718 1.72028 6.86864 1.27258Z" fill="white"/>
</g>
<defs>
<clipPath id="clip0_304_968">
<rect width="15" height="15" fill="white" transform="translate(0.5 0.5)"/>
</clipPath>
</defs>
</svg>
