<svg width="16" height="16" viewBox="0 0 16 16" fill="none" xmlns="http://www.w3.org/2000/svg">
<g clip-path="url(#clip0_304_952)">
<path d="M8.0121 4.11279C5.85333 4.11279 4.09668 5.84382 4.09668 7.97173C4.09668 10.0994 5.85309 11.8304 8.0121 11.8304C10.1709 11.8304 11.9275 10.0994 11.9275 7.97173C11.9275 5.84382 10.1709 4.11279 8.0121 4.11279ZM8.0121 10.4098C6.63941 10.4098 5.52286 9.31588 5.52286 7.97173C5.52286 6.62733 6.63941 5.53368 8.0121 5.53368C9.38455 5.53368 10.5013 6.62733 10.5013 7.97173C10.5013 9.31613 9.38479 10.4098 8.0121 10.4098Z" fill="white"/>
<path d="M11.1825 0.5H4.81754C2.43698 0.5 0.5 2.42922 0.5 4.8008V11.1992C0.5 13.5705 2.43673 15.5 4.81754 15.5H11.1825C13.5633 15.5 15.5 13.5705 15.5 11.1992V4.8008C15.5 2.42947 13.5633 0.5 11.1825 0.5ZM14.0711 11.1992C14.0711 12.7858 12.7752 14.0767 11.1825 14.0767H4.81754C3.22477 14.0767 1.92888 12.7858 1.92888 11.1992V4.8008C1.92888 3.21421 3.22477 1.92333 4.81754 1.92333H11.1825C12.7752 1.92333 14.0711 3.21421 14.0711 4.8008V11.1992Z" fill="white"/>
<path d="M11.9974 4.87334C12.5062 4.87334 12.9187 4.46248 12.9187 3.95565C12.9187 3.44883 12.5062 3.03796 11.9974 3.03796C11.4886 3.03796 11.0762 3.44883 11.0762 3.95565C11.0762 4.46248 11.4886 4.87334 11.9974 4.87334Z" fill="white"/>
</g>
<defs>
<clipPath id="clip0_304_952">
<rect width="15" height="15" fill="white" transform="translate(0.5 0.5)"/>
</clipPath>
</defs>
</svg>
