<svg width="30" height="30" viewBox="0 0 30 30" fill="none" xmlns="http://www.w3.org/2000/svg">
<g clip-path="url(#clip0_304_2215)">
<path d="M15.2922 19.754C15.0025 20.0453 14.8402 20.4395 14.8407 20.8503C14.8413 21.2611 15.0047 21.655 15.2952 21.9455C15.5857 22.2359 15.9795 22.3994 16.3903 22.3999C16.8012 22.4005 17.1954 22.2381 17.4867 21.9484L23.3386 16.0965C23.6296 15.8055 23.7931 15.4108 23.7931 14.9993C23.7931 14.5877 23.6296 14.1931 23.3386 13.9021L17.4867 8.05019C17.1957 7.75919 16.801 7.5957 16.3895 7.5957C15.9779 7.5957 15.5832 7.75919 15.2922 8.05019C15.0012 8.34119 14.8378 8.73588 14.8378 9.14742C14.8378 9.55896 15.0012 9.95364 15.2922 10.2446L18.4952 13.4476H1.55172C1.14018 13.4476 0.745494 13.6111 0.454489 13.9021C0.163485 14.1931 0 14.5878 0 14.9993C0 15.4109 0.163485 15.8055 0.454489 16.0965C0.745494 16.3876 1.14018 16.551 1.55172 16.551H18.4952L15.2922 19.754Z" fill="#FF7200"/>
<path d="M27.4156 0H12.9329C12.247 0 11.5892 0.272475 11.1042 0.757482C10.6192 1.24249 10.3467 1.9003 10.3467 2.58621V4.65517C10.3467 5.06672 10.5102 5.4614 10.8012 5.75241C11.0922 6.04341 11.4869 6.2069 11.8984 6.2069C12.3099 6.2069 12.7046 6.04341 12.9956 5.75241C13.2866 5.4614 13.4501 5.06672 13.4501 4.65517V3.10345H26.8984V26.8966H13.4501V25.3448C13.4501 24.9333 13.2866 24.5386 12.9956 24.2476C12.7046 23.9566 12.3099 23.7931 11.8984 23.7931C11.4869 23.7931 11.0922 23.9566 10.8012 24.2476C10.5102 24.5386 10.3467 24.9333 10.3467 25.3448V27.4138C10.3467 28.0997 10.6192 28.7575 11.1042 29.2425C11.5892 29.7275 12.247 30 12.9329 30H27.4156C28.1015 30 28.7594 29.7275 29.2444 29.2425C29.7294 28.7575 30.0019 28.0997 30.0019 27.4138V2.58621C30.0019 1.9003 29.7294 1.24249 29.2444 0.757482C28.7594 0.272475 28.1015 0 27.4156 0Z" fill="#FF7200"/>
</g>
<defs>
<clipPath id="clip0_304_2215">
<rect width="30" height="30" fill="white"/>
</clipPath>
</defs>
</svg>
