<svg width="20" height="20" viewBox="0 0 20 20" fill="none" xmlns="http://www.w3.org/2000/svg">
<path d="M18.2949 1.8138C18.2949 1.8138 20.1451 1.09237 19.9909 2.84442C19.9395 3.56585 19.4769 6.09086 19.1172 8.82199L17.8838 16.9123C17.8838 16.9123 17.781 18.0975 16.8559 18.3036C15.9308 18.5098 14.5432 17.5822 14.2863 17.3761C14.0807 17.2215 10.4318 14.9026 9.14696 13.7689C8.78721 13.4598 8.37607 12.8414 9.19836 12.12L14.5946 6.96688C15.2113 6.34851 15.828 4.90565 13.2584 6.65769L6.06339 11.5531C6.06339 11.5531 5.2411 12.0684 3.69931 11.6046L0.358771 10.574C0.358771 10.574 -0.874659 9.80107 1.23245 9.02811C6.37174 6.60616 12.6931 4.13269 18.2949 1.8138Z" fill="#009FE3"/>
</svg>
