<svg width="16" height="16" viewBox="0 0 16 16" fill="none" xmlns="http://www.w3.org/2000/svg">
<g clip-path="url(#clip0_304_963)">
<path d="M15.5002 3.43155C14.9547 3.70415 14.3412 3.84057 13.7275 3.90866C14.3412 3.49964 14.8185 2.95445 15.0911 2.20451C14.4774 2.54543 13.8638 2.81803 13.1139 2.95421C12.5683 2.34069 11.7503 2 10.864 2C9.15937 2 7.7958 3.36322 7.7958 5.06737C7.7958 5.33997 7.7958 5.54448 7.8639 5.74898C5.34108 5.61256 3.09117 4.38576 1.52304 2.54519C1.25037 3.0223 1.11392 3.4994 1.11392 4.11292C1.11392 5.20355 1.65949 6.08967 2.47749 6.6351C2.00026 6.6351 1.52304 6.49868 1.11392 6.22609V6.29418C1.11392 7.79382 2.13672 9.02086 3.56839 9.29346C3.29573 9.36155 3.02282 9.42988 2.75016 9.42988C2.5456 9.42988 2.34104 9.42988 2.20458 9.36179C2.6137 10.5888 3.70461 11.4749 5.06818 11.4749C4.04538 12.293 2.68181 12.7701 1.24989 12.7701C0.977226 12.7701 0.772666 12.7701 0.5 12.702C1.86357 13.5881 3.43194 14.0652 5.20463 14.0652C10.8637 14.0652 13.9319 9.43011 13.9319 5.34021V4.93119C14.6139 4.59027 15.0911 4.04507 15.5002 3.43155Z" fill="white"/>
</g>
<defs>
<clipPath id="clip0_304_963">
<rect width="15" height="15" fill="white" transform="translate(0.5 0.5)"/>
</clipPath>
</defs>
</svg>
