<svg width="16" height="16" viewBox="0 0 16 16" fill="none" xmlns="http://www.w3.org/2000/svg">
<g clip-path="url(#clip0_304_948)">
<path d="M15.421 11.6517C15.4028 11.6118 15.3859 11.5785 15.3701 11.5519C15.1097 11.0728 14.6125 10.4845 13.8785 9.78716L13.8627 9.77129L13.855 9.76312L13.8472 9.75542H13.8394C13.5062 9.43058 13.2953 9.21238 13.207 9.10037C13.0456 8.88777 13.0091 8.67214 13.0976 8.45395C13.1604 8.28896 13.3946 7.94031 13.8006 7.40778C14.0141 7.12587 14.1832 6.89974 14.3083 6.72892C15.209 5.50469 15.5993 4.72245 15.4797 4.38151L15.4327 4.30169C15.4014 4.25362 15.3206 4.20975 15.1905 4.16984C15.0604 4.12994 14.8938 4.12364 14.6908 4.15001L12.4416 4.16634C12.3896 4.16098 12.3375 4.16238 12.2853 4.17008C12.2332 4.17824 12.1994 4.18618 12.1837 4.19411C12.1679 4.20228 12.1552 4.20882 12.1447 4.21395L12.1134 4.23799C12.0874 4.25385 12.0588 4.28186 12.0276 4.322C11.9963 4.3619 11.97 4.40834 11.9495 4.46178C11.7048 5.10587 11.4263 5.70468 11.1139 6.25846C10.9212 6.58843 10.7441 6.87477 10.5829 7.11677C10.4216 7.35924 10.2862 7.53753 10.1769 7.65164C10.0675 7.76599 9.96847 7.85817 9.88014 7.92701C9.79157 7.99655 9.72378 8.02549 9.67722 8.01499C9.6302 8.00449 9.58591 7.99375 9.54437 7.98279C9.47156 7.93495 9.41267 7.86984 9.36862 7.78723C9.32433 7.70485 9.29443 7.601 9.27868 7.47592C9.26316 7.35083 9.2538 7.24302 9.25152 7.15247C9.24878 7.06193 9.25015 6.93428 9.2554 6.76929C9.26065 6.6043 9.26316 6.49275 9.26316 6.43395C9.26316 6.23185 9.26704 6.01226 9.27503 5.77516C9.28279 5.53829 9.28941 5.35067 9.29443 5.21228C9.29968 5.07413 9.30219 4.92758 9.30219 4.77309C9.30219 4.61907 9.29306 4.49772 9.2748 4.40974C9.25654 4.322 9.22915 4.23705 9.19286 4.15421C9.15634 4.07183 9.10293 4.00789 9.03262 3.96285C8.96232 3.91758 8.87513 3.88164 8.77104 3.85503C8.49486 3.79109 8.14357 3.75679 7.71674 3.75119C6.74825 3.74092 6.12603 3.80486 5.85007 3.94301C5.74073 4.00182 5.64167 4.0814 5.55334 4.18268C5.45952 4.29983 5.44651 4.364 5.5143 4.37404C5.82678 4.42211 6.04796 4.53669 6.17807 4.71755L6.22509 4.81323C6.26138 4.88277 6.2979 5.00505 6.33442 5.18055C6.37094 5.35627 6.39423 5.55043 6.40473 5.76349C6.43075 6.15204 6.43075 6.48459 6.40473 6.76159C6.37871 7.03859 6.35405 7.25399 6.33054 7.40801C6.30703 7.5625 6.27188 7.68735 6.22509 7.78326C6.17807 7.87941 6.14703 7.93798 6.13128 7.95922C6.11553 7.98045 6.10274 7.99375 6.09225 7.99912C6.02445 8.02549 5.95438 8.03903 5.88134 8.03903C5.8083 8.03903 5.71996 8.00169 5.61565 7.92701C5.51156 7.8528 5.40337 7.75012 5.29153 7.61967C5.17945 7.48945 5.05346 7.30696 4.91262 7.07266C4.77202 6.8386 4.62616 6.56183 4.47529 6.24235L4.35043 6.01062C4.27237 5.86174 4.16555 5.64471 4.03019 5.36C3.89483 5.0753 3.775 4.79993 3.67092 4.53343C3.62915 4.42188 3.56683 4.3367 3.48352 4.27789L3.44449 4.25385C3.41847 4.23262 3.3767 4.20998 3.3194 4.18618C3.26188 4.16214 3.20231 4.14487 3.13977 4.13414L0.999878 4.15001C0.78121 4.15001 0.632844 4.20088 0.554781 4.30193L0.52351 4.34977C0.507761 4.3766 0.5 4.41931 0.5 4.47765C0.5 4.53646 0.51575 4.6081 0.547021 4.69305C0.859501 5.44378 1.19914 6.16768 1.56618 6.86474C1.93344 7.56226 2.25208 8.12397 2.52302 8.54963C2.79373 8.97575 3.06969 9.37737 3.3509 9.75542C3.63211 10.1335 3.81814 10.3755 3.90922 10.4819C4.00029 10.5885 4.07173 10.6683 4.124 10.7216L4.31916 10.9134C4.44402 11.041 4.62776 11.1941 4.86971 11.3724C5.11189 11.5509 5.37986 11.7264 5.67408 11.8991C5.96807 12.0723 6.31069 12.213 6.701 12.3224C7.09155 12.4316 7.47159 12.4755 7.84113 12.454H8.73932C8.92169 12.4382 9.05956 12.3798 9.15314 12.2783L9.18441 12.2384C9.20519 12.2067 9.22482 12.1572 9.24308 12.0909C9.26111 12.0244 9.27047 11.9511 9.27047 11.8713C9.26499 11.6424 9.28211 11.4359 9.32114 11.2525C9.36017 11.0688 9.40445 10.9304 9.45398 10.8371C9.50351 10.7442 9.55921 10.6655 9.62198 10.6016C9.68452 10.5377 9.72857 10.4994 9.75482 10.4859C9.78084 10.4728 9.80184 10.4634 9.81736 10.4578C9.94222 10.4154 10.0892 10.4567 10.2586 10.5815C10.4277 10.7068 10.5866 10.8609 10.735 11.0448C10.8833 11.2284 11.0616 11.4345 11.27 11.6636C11.4781 11.8926 11.6603 12.0627 11.8166 12.1745L11.973 12.2706C12.0771 12.3343 12.2124 12.3929 12.3791 12.4463C12.5457 12.4993 12.6916 12.5129 12.8164 12.4863L14.8157 12.454C15.0136 12.454 15.1672 12.4209 15.2765 12.3542C15.3859 12.2881 15.4509 12.2144 15.4717 12.1346C15.4925 12.0548 15.4938 11.9647 15.4756 11.8632C15.4573 11.7621 15.4391 11.6916 15.421 11.6517Z" fill="white"/>
</g>
<defs>
<clipPath id="clip0_304_948">
<rect width="15" height="15" fill="white" transform="translate(0.5 0.5)"/>
</clipPath>
</defs>
</svg>
