<svg width="40" height="42" viewBox="0 0 40 42" fill="none" xmlns="http://www.w3.org/2000/svg">
<g clip-path="url(#clip0_241_447)">
<path d="M19.9986 0.412109C11.6786 0.412109 4.91016 7.3796 4.91016 15.9432C4.91016 28.2734 18.3796 40.6599 18.9533 41.1822C19.2533 41.4531 19.6259 41.5886 19.9986 41.5886C20.3859 41.5886 20.7733 41.4423 21.0754 41.1508C21.647 40.6003 35.087 27.5322 35.087 15.9443C35.087 7.38069 28.3165 0.412109 19.9986 0.412109ZM19.9986 23.3496C16.0249 23.3496 12.8049 20.0327 12.8049 15.9454C12.8049 11.8581 16.0249 8.54121 19.9986 8.54121C23.9702 8.54121 27.1902 11.857 27.1902 15.9454C27.1902 20.0338 23.9702 23.3496 19.9986 23.3496Z" fill="#FF7200"/>
</g>
<defs>
<clipPath id="clip0_241_447">
<rect width="40" height="41.1765" fill="white" transform="translate(0 0.412109)"/>
</clipPath>
</defs>
</svg>
